%TF.GenerationSoftware,KiCad,Pcbnew,(5.1.8)-1*%
%TF.CreationDate,2021-05-05T18:46:58+02:00*%
%TF.ProjectId,Annelise,416e6e65-6c69-4736-952e-6b696361645f,rev?*%
%TF.SameCoordinates,Original*%
%TF.FileFunction,Profile,NP*%
%FSLAX46Y46*%
G04 Gerber Fmt 4.6, Leading zero omitted, Abs format (unit mm)*
G04 Created by KiCad (PCBNEW (5.1.8)-1) date 2021-05-05 18:46:58*
%MOMM*%
%LPD*%
G01*
G04 APERTURE LIST*
%TA.AperFunction,Profile*%
%ADD10C,0.200000*%
%TD*%
G04 APERTURE END LIST*
D10*
X168907672Y-99192539D02*
X168907672Y-85636112D01*
X168907674Y-99192540D02*
G75*
G02*
X166907674Y-101192540I-2000000J0D01*
G01*
X158907675Y-101192540D02*
X166907674Y-101192540D01*
X158907675Y-101192540D02*
G75*
G02*
X156907674Y-99192541I-1J2000000D01*
G01*
X156907674Y-85642510D02*
X156907674Y-99192541D01*
X155184576Y-83661774D02*
G75*
G02*
X156907674Y-85642510I-276901J-1980738D01*
G01*
X79715456Y-73111334D02*
X155184577Y-83661774D01*
X79577004Y-73101703D02*
G75*
G02*
X79715456Y-73111334I2J-1000001D01*
G01*
X29219228Y-73101704D02*
X79577005Y-73101705D01*
X28219228Y-74101704D02*
G75*
G02*
X29219228Y-73101704I1000000J0D01*
G01*
X28219228Y-148872253D02*
X28219228Y-74101706D01*
X29219227Y-149872254D02*
G75*
G02*
X28219228Y-148872253I1J1000000D01*
G01*
X78293382Y-149872254D02*
X29219228Y-149872252D01*
X78293382Y-149872253D02*
G75*
G02*
X78989311Y-149920922I0J-5000000D01*
G01*
X149483967Y-159829228D02*
X78989311Y-149920922D01*
X149623153Y-159838961D02*
G75*
G02*
X149483967Y-159829228I-2J1000001D01*
G01*
X176002915Y-159838961D02*
X149623153Y-159838960D01*
X176142091Y-159829229D02*
G75*
G02*
X176002915Y-159838961I-139175J990268D01*
G01*
X246641892Y-149920914D02*
X176142091Y-159829229D01*
X246641894Y-149920916D02*
G75*
G02*
X247337774Y-149872254I695879J-4951339D01*
G01*
X305825228Y-149872253D02*
X247337774Y-149872254D01*
X306825228Y-148872253D02*
G75*
G02*
X305825228Y-149872253I-1000000J0D01*
G01*
X306825227Y-74101704D02*
X306825228Y-148872253D01*
X305825226Y-73101701D02*
G75*
G02*
X306825227Y-74101704I-1J-1000002D01*
G01*
X245747730Y-73101704D02*
X305825226Y-73101703D01*
X245608473Y-73111448D02*
G75*
G02*
X245747730Y-73101704I139257J-990256D01*
G01*
X170629158Y-83655600D02*
X245608473Y-73111448D01*
X168907673Y-85636113D02*
G75*
G02*
X170629158Y-83655600I2000000J1D01*
G01*
X46387978Y-121107702D02*
G75*
G03*
X46387978Y-121107702I-1500000J0D01*
G01*
X235471749Y-84358898D02*
G75*
G03*
X235471749Y-84358898I-1500000J0D01*
G01*
X44577980Y-101866905D02*
G75*
G03*
X44577980Y-101866905I-1500001J0D01*
G01*
X226901702Y-143287165D02*
G75*
G03*
X226901702Y-143287165I-1499999J0D01*
G01*
X106452227Y-143951478D02*
G75*
G03*
X106452227Y-143951478I-1500000J0D01*
G01*
X43720978Y-140347254D02*
G75*
G03*
X43720978Y-140347254I-1500000J0D01*
G01*
X294321477Y-140499065D02*
G75*
G03*
X294321477Y-140499065I-1500000J0D01*
G01*
X242821985Y-102575462D02*
G75*
G03*
X242821985Y-102575462I-1499998J0D01*
G01*
X236040483Y-122765710D02*
G75*
G03*
X236040483Y-122765710I-1500001J0D01*
G01*
X288988974Y-102018715D02*
G75*
G03*
X288988974Y-102018715I-1499998J0D01*
G01*
X44768978Y-82626705D02*
G75*
G03*
X44768978Y-82626705I-1500000J0D01*
G01*
X296418979Y-121259512D02*
G75*
G03*
X296418979Y-121259512I-1500001J0D01*
G01*
X83751002Y-83049482D02*
G75*
G03*
X83751002Y-83049482I-1500000J0D01*
G01*
X92597222Y-122766926D02*
G75*
G03*
X92597222Y-122766926I-1500001J0D01*
G01*
X293466977Y-82777814D02*
G75*
G03*
X293466977Y-82777814I-1500000J0D01*
G01*
X85816211Y-102576928D02*
G75*
G03*
X85816211Y-102576928I-1500000J0D01*
G01*
M02*
