%TF.GenerationSoftware,KiCad,Pcbnew,(5.1.8)-1*%
%TF.CreationDate,2021-05-05T18:46:58+02:00*%
%TF.ProjectId,Annelise,416e6e65-6c69-4736-952e-6b696361645f,rev?*%
%TF.SameCoordinates,Original*%
%TF.FileFunction,Legend,Bot*%
%TF.FilePolarity,Positive*%
%FSLAX46Y46*%
G04 Gerber Fmt 4.6, Leading zero omitted, Abs format (unit mm)*
G04 Created by KiCad (PCBNEW (5.1.8)-1) date 2021-05-05 18:46:58*
%MOMM*%
%LPD*%
G01*
G04 APERTURE LIST*
%ADD10C,0.120000*%
%ADD11C,0.150000*%
G04 APERTURE END LIST*
D10*
%TO.C,Y1*%
X170902324Y-130510267D02*
X171185167Y-130793110D01*
X170760903Y-130651688D02*
X171043745Y-130934531D01*
X168215318Y-133197273D02*
X168498161Y-133480115D01*
X169488110Y-129096053D02*
X170902324Y-130510267D01*
X170336639Y-131641638D02*
X170619481Y-131924480D01*
X170336639Y-131641638D02*
X171043745Y-130934531D01*
X170760903Y-130651688D02*
X169346689Y-129237475D01*
X169346689Y-129237475D02*
X168639582Y-129944581D01*
X167366790Y-131217374D02*
X166801105Y-131783059D01*
X166801105Y-131783059D02*
X168215318Y-133197273D01*
X168498161Y-133480115D02*
X169063846Y-132914430D01*
%TO.C,U3*%
X170292425Y-112273795D02*
X170292425Y-113733795D01*
X173452425Y-112273795D02*
X173452425Y-114433795D01*
X173452425Y-112273795D02*
X172522425Y-112273795D01*
X170292425Y-112273795D02*
X171222425Y-112273795D01*
%TO.C,U2*%
X167809538Y-126501993D02*
X168721706Y-127414161D01*
X168127736Y-126183795D02*
X167809538Y-126501993D01*
X167809538Y-125865597D02*
X168127736Y-126183795D01*
X163022425Y-121078484D02*
X162704227Y-121396682D01*
X163340623Y-121396682D02*
X163022425Y-121078484D01*
X163022425Y-131289106D02*
X163340623Y-130970908D01*
X162704227Y-130970908D02*
X163022425Y-131289106D01*
X157917114Y-126183795D02*
X158235312Y-125865597D01*
X158235312Y-126501993D02*
X157917114Y-126183795D01*
%TO.C,R4*%
X170649122Y-121771565D02*
X170984655Y-122107098D01*
X169910195Y-122510492D02*
X170245728Y-122846025D01*
%TO.C,R3*%
X158584655Y-117885492D02*
X158249122Y-118221025D01*
X157845728Y-117146565D02*
X157510195Y-117482098D01*
%TO.C,J2*%
X166777425Y-116363795D02*
X166777425Y-115033795D01*
X165447425Y-116363795D02*
X166777425Y-116363795D01*
X164177425Y-116363795D02*
X164177425Y-113703795D01*
X164177425Y-113703795D02*
X159037425Y-113703795D01*
X164177425Y-116363795D02*
X159037425Y-116363795D01*
X159037425Y-116363795D02*
X159037425Y-113703795D01*
%TO.C,J1*%
X164962425Y-109568795D02*
X161082425Y-109568795D01*
X159912425Y-105098795D02*
X160962425Y-105098795D01*
X159912425Y-107598795D02*
X159912425Y-105098795D01*
X165082425Y-105098795D02*
X165082425Y-104108795D01*
X166132425Y-105098795D02*
X165082425Y-105098795D01*
X166132425Y-107598795D02*
X166132425Y-105098795D01*
%TO.C,F1*%
X168982425Y-106781731D02*
X168982425Y-107985859D01*
X167162425Y-106781731D02*
X167162425Y-107985859D01*
%TO.C,D23*%
X282495227Y-143640312D02*
X282495227Y-142180312D01*
X279335227Y-143640312D02*
X279335227Y-141480312D01*
X279335227Y-143640312D02*
X280265227Y-143640312D01*
X282495227Y-143640312D02*
X281565227Y-143640312D01*
%TO.C,D22*%
X215630382Y-147820376D02*
X215427189Y-146374585D01*
X212501135Y-148260163D02*
X212200521Y-146121184D01*
X212501135Y-148260163D02*
X213422084Y-148130732D01*
X215630382Y-147820376D02*
X214709433Y-147949807D01*
%TO.C,D21*%
X117870070Y-148939182D02*
X118073263Y-147493391D01*
X114740823Y-148499395D02*
X115041437Y-146360416D01*
X114740823Y-148499395D02*
X115661772Y-148628826D01*
X117870070Y-148939182D02*
X116949121Y-148809751D01*
%TO.C,D20*%
X55707228Y-143488505D02*
X55707228Y-142028505D01*
X52547228Y-143488505D02*
X52547228Y-141328505D01*
X52547228Y-143488505D02*
X53477228Y-143488505D01*
X55707228Y-143488505D02*
X54777228Y-143488505D01*
%TO.C,D19*%
X265542727Y-124400763D02*
X265542727Y-122940763D01*
X262382727Y-124400763D02*
X262382727Y-122240763D01*
X262382727Y-124400763D02*
X263312727Y-124400763D01*
X265542727Y-124400763D02*
X264612727Y-124400763D01*
%TO.C,D18*%
X227127590Y-126967333D02*
X226924397Y-125521542D01*
X223998343Y-127407120D02*
X223697729Y-125268141D01*
X223998343Y-127407120D02*
X224919292Y-127277689D01*
X227127590Y-126967333D02*
X226206641Y-127096764D01*
%TO.C,D17*%
X189398376Y-132269828D02*
X189195183Y-130824037D01*
X186269129Y-132709615D02*
X185968515Y-130570636D01*
X186269129Y-132709615D02*
X187190078Y-132580184D01*
X189398376Y-132269828D02*
X188477427Y-132399259D01*
%TO.C,D16*%
X139385923Y-132725823D02*
X139589116Y-131280032D01*
X136256676Y-132286036D02*
X136557290Y-130147057D01*
X136256676Y-132286036D02*
X137177625Y-132415467D01*
X139385923Y-132725823D02*
X138464974Y-132596392D01*
%TO.C,D15*%
X101656711Y-127423328D02*
X101859904Y-125977537D01*
X98527464Y-126983541D02*
X98828078Y-124844562D01*
X98527464Y-126983541D02*
X99448413Y-127112972D01*
X101656711Y-127423328D02*
X100735762Y-127293897D01*
%TO.C,D14*%
X63136728Y-124248952D02*
X63136728Y-122788952D01*
X59976728Y-124248952D02*
X59976728Y-122088952D01*
X59976728Y-124248952D02*
X60906728Y-124248952D01*
X63136728Y-124248952D02*
X62206728Y-124248952D01*
%TO.C,D13*%
X272400226Y-105159964D02*
X272400226Y-103699964D01*
X269240226Y-105159964D02*
X269240226Y-102999964D01*
X269240226Y-105159964D02*
X270170226Y-105159964D01*
X272400226Y-105159964D02*
X271470226Y-105159964D01*
%TO.C,D12*%
X233908646Y-106777103D02*
X233705453Y-105331312D01*
X230779399Y-107216890D02*
X230478785Y-105077911D01*
X230779399Y-107216890D02*
X231700348Y-107087459D01*
X233908646Y-106777103D02*
X232987697Y-106906534D01*
%TO.C,D11*%
X196179432Y-112079598D02*
X195976239Y-110633807D01*
X193050185Y-112519385D02*
X192749571Y-110380406D01*
X193050185Y-112519385D02*
X193971134Y-112389954D01*
X196179432Y-112079598D02*
X195258483Y-112209029D01*
%TO.C,D10*%
X132604869Y-112535593D02*
X132808062Y-111089802D01*
X129475622Y-112095806D02*
X129776236Y-109956827D01*
X129475622Y-112095806D02*
X130396571Y-112225237D01*
X132604869Y-112535593D02*
X131683920Y-112406162D01*
%TO.C,D9*%
X94875655Y-107233097D02*
X95078848Y-105787306D01*
X91746408Y-106793310D02*
X92047022Y-104654331D01*
X91746408Y-106793310D02*
X92667357Y-106922741D01*
X94875655Y-107233097D02*
X93954706Y-107103666D01*
%TO.C,D8*%
X56564229Y-105008155D02*
X56564229Y-103548155D01*
X53404229Y-105008155D02*
X53404229Y-102848155D01*
X53404229Y-105008155D02*
X54334229Y-105008155D01*
X56564229Y-105008155D02*
X55634229Y-105008155D01*
%TO.C,D7*%
X303071977Y-85919065D02*
X303071977Y-84459065D01*
X299911977Y-85919065D02*
X299911977Y-83759065D01*
X299911977Y-85919065D02*
X300841977Y-85919065D01*
X303071977Y-85919065D02*
X302141977Y-85919065D01*
%TO.C,D6*%
X264971977Y-85919065D02*
X264971977Y-84459065D01*
X261811977Y-85919065D02*
X261811977Y-83759065D01*
X261811977Y-85919065D02*
X262741977Y-85919065D01*
X264971977Y-85919065D02*
X264041977Y-85919065D01*
%TO.C,D5*%
X226541247Y-88575308D02*
X226338054Y-87129517D01*
X223412000Y-89015095D02*
X223111386Y-86876116D01*
X223412000Y-89015095D02*
X224332949Y-88885664D01*
X226541247Y-88575308D02*
X225620298Y-88704739D01*
%TO.C,D4*%
X188812033Y-93877804D02*
X188608840Y-92432013D01*
X185682786Y-94317591D02*
X185382172Y-92178612D01*
X185682786Y-94317591D02*
X186603735Y-94188160D01*
X188812033Y-93877804D02*
X187891084Y-94007235D01*
%TO.C,D3*%
X130539965Y-93008174D02*
X130743158Y-91562383D01*
X127410718Y-92568387D02*
X127711332Y-90429408D01*
X127410718Y-92568387D02*
X128331667Y-92697818D01*
X130539965Y-93008174D02*
X129619016Y-92878743D01*
%TO.C,D2*%
X92810751Y-87705679D02*
X93013944Y-86259888D01*
X89681504Y-87265892D02*
X89982118Y-85126913D01*
X89681504Y-87265892D02*
X90602453Y-87395323D01*
X92810751Y-87705679D02*
X91889802Y-87576248D01*
%TO.C,D1*%
X54373978Y-85767955D02*
X54373978Y-84307955D01*
X51213978Y-85767955D02*
X51213978Y-83607955D01*
X51213978Y-85767955D02*
X52143978Y-85767955D01*
X54373978Y-85767955D02*
X53443978Y-85767955D01*
%TO.C,C9*%
X168862425Y-113174375D02*
X168862425Y-112893215D01*
X169882425Y-113174375D02*
X169882425Y-112893215D01*
%TO.C,C8*%
X174882425Y-112893215D02*
X174882425Y-113174375D01*
X173862425Y-112893215D02*
X173862425Y-113174375D01*
%TO.C,C7*%
X159582455Y-119020014D02*
X159383644Y-119218825D01*
X158861206Y-118298765D02*
X158662395Y-118497576D01*
%TO.C,C6*%
X160657455Y-120095014D02*
X160458644Y-120293825D01*
X159936206Y-119373765D02*
X159737395Y-119572576D01*
%TO.C,C5*%
X156933644Y-128548765D02*
X157132455Y-128747576D01*
X156212395Y-129270014D02*
X156411206Y-129468825D01*
%TO.C,C4*%
X167308644Y-132773765D02*
X167507455Y-132972576D01*
X166587395Y-133495014D02*
X166786206Y-133693825D01*
%TO.C,C3*%
X169111206Y-123843825D02*
X168912395Y-123645014D01*
X169832455Y-123122576D02*
X169633644Y-122923765D01*
%TO.C,C1*%
X165711206Y-134768825D02*
X165512395Y-134570014D01*
X166432455Y-134047576D02*
X166233644Y-133848765D01*
%TO.C,Y1*%
D11*
X167828092Y-129591027D02*
X168164810Y-129927745D01*
X167693405Y-128984936D02*
X167828092Y-129591027D01*
X167222001Y-129456340D01*
X167323016Y-130769538D02*
X167727077Y-130365477D01*
X167525046Y-130567508D02*
X166817940Y-129860401D01*
X166986298Y-129894073D01*
X167120985Y-129894073D01*
X167222001Y-129860401D01*
%TO.C,U3*%
X173824805Y-112271890D02*
X174634329Y-112271890D01*
X174729567Y-112319509D01*
X174777186Y-112367128D01*
X174824805Y-112462366D01*
X174824805Y-112652842D01*
X174777186Y-112748080D01*
X174729567Y-112795699D01*
X174634329Y-112843318D01*
X173824805Y-112843318D01*
X173824805Y-113224271D02*
X173824805Y-113843318D01*
X174205758Y-113509985D01*
X174205758Y-113652842D01*
X174253377Y-113748080D01*
X174300996Y-113795699D01*
X174396234Y-113843318D01*
X174634329Y-113843318D01*
X174729567Y-113795699D01*
X174777186Y-113748080D01*
X174824805Y-113652842D01*
X174824805Y-113367128D01*
X174777186Y-113271890D01*
X174729567Y-113224271D01*
%TO.C,U2*%
X168084973Y-122198742D02*
X167512553Y-122771162D01*
X167411538Y-122804834D01*
X167344194Y-122804834D01*
X167243179Y-122771162D01*
X167108492Y-122636475D01*
X167074820Y-122535460D01*
X167074820Y-122468116D01*
X167108492Y-122367101D01*
X167680912Y-121794681D01*
X167310522Y-121558979D02*
X167310522Y-121491636D01*
X167276851Y-121390620D01*
X167108492Y-121222262D01*
X167007477Y-121188590D01*
X166940133Y-121188590D01*
X166839118Y-121222262D01*
X166771774Y-121289605D01*
X166704431Y-121424292D01*
X166704431Y-122232414D01*
X166266698Y-121794681D01*
%TO.C,R4*%
X169234231Y-123757690D02*
X169806651Y-123656675D01*
X169638292Y-124161751D02*
X170345399Y-123454645D01*
X170076025Y-123185270D01*
X169975010Y-123151599D01*
X169907666Y-123151599D01*
X169806651Y-123185270D01*
X169705636Y-123286286D01*
X169671964Y-123387301D01*
X169671964Y-123454645D01*
X169705636Y-123555660D01*
X169975010Y-123825034D01*
X169099544Y-122680194D02*
X168628139Y-123151599D01*
X169537277Y-122579179D02*
X169200559Y-123252614D01*
X168762826Y-122814881D01*
%TO.C,R3*%
X157473994Y-116874662D02*
X157372979Y-116302242D01*
X157878055Y-116470601D02*
X157170949Y-115763494D01*
X156901574Y-116032868D01*
X156867903Y-116133883D01*
X156867903Y-116201227D01*
X156901574Y-116302242D01*
X157002590Y-116403257D01*
X157103605Y-116436929D01*
X157170949Y-116436929D01*
X157271964Y-116403257D01*
X157541338Y-116133883D01*
X156531185Y-116403257D02*
X156093452Y-116840990D01*
X156598529Y-116874662D01*
X156497513Y-116975677D01*
X156463842Y-117076693D01*
X156463842Y-117144036D01*
X156497513Y-117245051D01*
X156665872Y-117413410D01*
X156766887Y-117447082D01*
X156834231Y-117447082D01*
X156935246Y-117413410D01*
X157137277Y-117211380D01*
X157170949Y-117110364D01*
X157170949Y-117043021D01*
%TO.C,J2*%
X167229805Y-114700461D02*
X167944091Y-114700461D01*
X168086948Y-114652842D01*
X168182186Y-114557604D01*
X168229805Y-114414747D01*
X168229805Y-114319509D01*
X167325044Y-115129033D02*
X167277425Y-115176652D01*
X167229805Y-115271890D01*
X167229805Y-115509985D01*
X167277425Y-115605223D01*
X167325044Y-115652842D01*
X167420282Y-115700461D01*
X167515520Y-115700461D01*
X167658377Y-115652842D01*
X168229805Y-115081414D01*
X168229805Y-115700461D01*
%TO.C,J1*%
X163355758Y-102356175D02*
X163355758Y-103070461D01*
X163403377Y-103213318D01*
X163498615Y-103308556D01*
X163641472Y-103356175D01*
X163736710Y-103356175D01*
X162355758Y-103356175D02*
X162927186Y-103356175D01*
X162641472Y-103356175D02*
X162641472Y-102356175D01*
X162736710Y-102499033D01*
X162831948Y-102594271D01*
X162927186Y-102641890D01*
%TO.C,F1*%
X166180996Y-107050461D02*
X166180996Y-106717128D01*
X166704805Y-106717128D02*
X165704805Y-106717128D01*
X165704805Y-107193318D01*
X166704805Y-108098080D02*
X166704805Y-107526652D01*
X166704805Y-107812366D02*
X165704805Y-107812366D01*
X165847663Y-107717128D01*
X165942901Y-107621890D01*
X165990520Y-107526652D01*
%TO.C,D23*%
X278867607Y-141666026D02*
X277867607Y-141666026D01*
X277867607Y-141904121D01*
X277915227Y-142046978D01*
X278010465Y-142142216D01*
X278105703Y-142189835D01*
X278296179Y-142237454D01*
X278439036Y-142237454D01*
X278629512Y-142189835D01*
X278724750Y-142142216D01*
X278819988Y-142046978D01*
X278867607Y-141904121D01*
X278867607Y-141666026D01*
X277962846Y-142618407D02*
X277915227Y-142666026D01*
X277867607Y-142761264D01*
X277867607Y-142999359D01*
X277915227Y-143094597D01*
X277962846Y-143142216D01*
X278058084Y-143189835D01*
X278153322Y-143189835D01*
X278296179Y-143142216D01*
X278867607Y-142570788D01*
X278867607Y-143189835D01*
X277867607Y-143523169D02*
X277867607Y-144142216D01*
X278248560Y-143808883D01*
X278248560Y-143951740D01*
X278296179Y-144046978D01*
X278343798Y-144094597D01*
X278439036Y-144142216D01*
X278677131Y-144142216D01*
X278772369Y-144094597D01*
X278819988Y-144046978D01*
X278867607Y-143951740D01*
X278867607Y-143666026D01*
X278819988Y-143570788D01*
X278772369Y-143523169D01*
%TO.C,D22*%
X211205334Y-148901026D02*
X212195602Y-148761853D01*
X212162466Y-148526075D01*
X212095428Y-148391235D01*
X211987862Y-148310179D01*
X211886924Y-148276278D01*
X211691674Y-148255631D01*
X211550207Y-148275513D01*
X211368212Y-148349178D01*
X211280528Y-148409588D01*
X211199471Y-148517154D01*
X211172198Y-148665248D01*
X211205334Y-148901026D01*
X211968745Y-147831995D02*
X212009273Y-147778212D01*
X212043174Y-147677274D01*
X212010038Y-147441496D01*
X211949628Y-147353812D01*
X211895845Y-147313283D01*
X211794906Y-147279382D01*
X211700595Y-147292637D01*
X211565755Y-147359674D01*
X211079415Y-148005069D01*
X210993261Y-147392046D01*
X211836199Y-146888883D02*
X211876728Y-146835100D01*
X211910629Y-146734161D01*
X211877492Y-146498383D01*
X211817082Y-146410699D01*
X211763299Y-146370171D01*
X211662360Y-146336270D01*
X211568049Y-146349524D01*
X211433210Y-146416562D01*
X210946870Y-147061957D01*
X210860715Y-146448934D01*
%TO.C,D21*%
X114552522Y-146479242D02*
X113562254Y-146340069D01*
X113529117Y-146575847D01*
X113556391Y-146723942D01*
X113637448Y-146831507D01*
X113725132Y-146891918D01*
X113907127Y-146965582D01*
X114048594Y-146985464D01*
X114243844Y-146964818D01*
X114344782Y-146930917D01*
X114452348Y-146849860D01*
X114519385Y-146715021D01*
X114552522Y-146479242D01*
X113524019Y-147296436D02*
X113470236Y-147336965D01*
X113409826Y-147424649D01*
X113376690Y-147660427D01*
X113410591Y-147761365D01*
X113451119Y-147815148D01*
X113538803Y-147875558D01*
X113633114Y-147888813D01*
X113781208Y-147861539D01*
X114426603Y-147375199D01*
X114340449Y-147988222D01*
X114207903Y-148931335D02*
X114287430Y-148365467D01*
X114247666Y-148648401D02*
X113257398Y-148509228D01*
X113412120Y-148434799D01*
X113519686Y-148353742D01*
X113580096Y-148266058D01*
%TO.C,D20*%
X52079608Y-141514219D02*
X51079608Y-141514219D01*
X51079608Y-141752314D01*
X51127228Y-141895171D01*
X51222466Y-141990409D01*
X51317704Y-142038028D01*
X51508180Y-142085647D01*
X51651037Y-142085647D01*
X51841513Y-142038028D01*
X51936751Y-141990409D01*
X52031989Y-141895171D01*
X52079608Y-141752314D01*
X52079608Y-141514219D01*
X51174847Y-142466600D02*
X51127228Y-142514219D01*
X51079608Y-142609457D01*
X51079608Y-142847552D01*
X51127228Y-142942790D01*
X51174847Y-142990409D01*
X51270085Y-143038028D01*
X51365323Y-143038028D01*
X51508180Y-142990409D01*
X52079608Y-142418981D01*
X52079608Y-143038028D01*
X51079608Y-143657076D02*
X51079608Y-143752314D01*
X51127228Y-143847552D01*
X51174847Y-143895171D01*
X51270085Y-143942790D01*
X51460561Y-143990409D01*
X51698656Y-143990409D01*
X51889132Y-143942790D01*
X51984370Y-143895171D01*
X52031989Y-143847552D01*
X52079608Y-143752314D01*
X52079608Y-143657076D01*
X52031989Y-143561838D01*
X51984370Y-143514219D01*
X51889132Y-143466600D01*
X51698656Y-143418981D01*
X51460561Y-143418981D01*
X51270085Y-143466600D01*
X51174847Y-143514219D01*
X51127228Y-143561838D01*
X51079608Y-143657076D01*
%TO.C,D19*%
X261915107Y-122426477D02*
X260915107Y-122426477D01*
X260915107Y-122664572D01*
X260962727Y-122807429D01*
X261057965Y-122902667D01*
X261153203Y-122950286D01*
X261343679Y-122997905D01*
X261486536Y-122997905D01*
X261677012Y-122950286D01*
X261772250Y-122902667D01*
X261867488Y-122807429D01*
X261915107Y-122664572D01*
X261915107Y-122426477D01*
X261915107Y-123950286D02*
X261915107Y-123378858D01*
X261915107Y-123664572D02*
X260915107Y-123664572D01*
X261057965Y-123569334D01*
X261153203Y-123474096D01*
X261200822Y-123378858D01*
X261915107Y-124426477D02*
X261915107Y-124616953D01*
X261867488Y-124712191D01*
X261819869Y-124759810D01*
X261677012Y-124855048D01*
X261486536Y-124902667D01*
X261105584Y-124902667D01*
X261010346Y-124855048D01*
X260962727Y-124807429D01*
X260915107Y-124712191D01*
X260915107Y-124521715D01*
X260962727Y-124426477D01*
X261010346Y-124378858D01*
X261105584Y-124331239D01*
X261343679Y-124331239D01*
X261438917Y-124378858D01*
X261486536Y-124426477D01*
X261534155Y-124521715D01*
X261534155Y-124712191D01*
X261486536Y-124807429D01*
X261438917Y-124855048D01*
X261343679Y-124902667D01*
%TO.C,D18*%
X222702542Y-128047983D02*
X223692810Y-127908810D01*
X223659674Y-127673032D01*
X223592636Y-127538192D01*
X223485070Y-127457136D01*
X223384132Y-127423235D01*
X223188882Y-127402588D01*
X223047415Y-127422470D01*
X222865420Y-127496135D01*
X222777736Y-127556545D01*
X222696679Y-127664111D01*
X222669406Y-127812205D01*
X222702542Y-128047983D01*
X222490469Y-126539003D02*
X222569996Y-127104871D01*
X222530232Y-126821937D02*
X223520501Y-126682764D01*
X223392288Y-126796957D01*
X223311232Y-126904523D01*
X223277331Y-127005461D01*
X222976809Y-125893608D02*
X223037219Y-125981292D01*
X223091002Y-126021821D01*
X223191940Y-126055722D01*
X223239096Y-126049094D01*
X223326780Y-125988684D01*
X223367308Y-125934901D01*
X223401209Y-125833963D01*
X223374700Y-125645340D01*
X223314290Y-125557656D01*
X223260507Y-125517128D01*
X223159568Y-125483227D01*
X223112413Y-125489854D01*
X223024729Y-125550264D01*
X222984201Y-125604047D01*
X222950300Y-125704986D01*
X222976809Y-125893608D01*
X222942908Y-125994547D01*
X222902379Y-126048330D01*
X222814695Y-126108740D01*
X222626073Y-126135249D01*
X222525134Y-126101348D01*
X222471351Y-126060820D01*
X222410941Y-125973136D01*
X222384432Y-125784513D01*
X222418333Y-125683575D01*
X222458861Y-125629792D01*
X222546545Y-125569382D01*
X222735168Y-125542872D01*
X222836106Y-125576773D01*
X222889889Y-125617302D01*
X222950300Y-125704986D01*
%TO.C,D17*%
X184973328Y-133350478D02*
X185963596Y-133211305D01*
X185930460Y-132975527D01*
X185863422Y-132840687D01*
X185755856Y-132759631D01*
X185654918Y-132725730D01*
X185459668Y-132705083D01*
X185318201Y-132724965D01*
X185136206Y-132798630D01*
X185048522Y-132859040D01*
X184967465Y-132966606D01*
X184940192Y-133114700D01*
X184973328Y-133350478D01*
X184761255Y-131841498D02*
X184840782Y-132407366D01*
X184801018Y-132124432D02*
X185791287Y-131985259D01*
X185663074Y-132099452D01*
X185582018Y-132207018D01*
X185548117Y-132307956D01*
X185705132Y-131372236D02*
X185612350Y-130712057D01*
X184681727Y-131275631D01*
%TO.C,D16*%
X136068375Y-130265883D02*
X135078107Y-130126710D01*
X135044970Y-130362488D01*
X135072244Y-130510583D01*
X135153301Y-130618148D01*
X135240985Y-130678559D01*
X135422980Y-130752223D01*
X135564447Y-130772105D01*
X135759697Y-130751459D01*
X135860635Y-130717558D01*
X135968201Y-130636501D01*
X136035238Y-130501662D01*
X136068375Y-130265883D01*
X135856302Y-131774863D02*
X135935829Y-131208996D01*
X135896065Y-131491930D02*
X134905797Y-131352756D01*
X135060519Y-131278327D01*
X135168084Y-131197270D01*
X135228495Y-131109586D01*
X134746742Y-132484491D02*
X134773251Y-132295869D01*
X134833662Y-132208185D01*
X134887445Y-132167657D01*
X135042166Y-132093227D01*
X135237416Y-132072581D01*
X135614661Y-132125599D01*
X135702345Y-132186009D01*
X135742873Y-132239792D01*
X135776774Y-132340731D01*
X135750265Y-132529353D01*
X135689855Y-132617037D01*
X135636072Y-132657566D01*
X135535133Y-132691467D01*
X135299355Y-132658330D01*
X135211671Y-132597920D01*
X135171143Y-132544137D01*
X135137242Y-132443198D01*
X135163751Y-132254576D01*
X135224161Y-132166892D01*
X135277944Y-132126364D01*
X135378883Y-132092463D01*
%TO.C,D15*%
X98339163Y-124963388D02*
X97348895Y-124824215D01*
X97315758Y-125059993D01*
X97343032Y-125208088D01*
X97424089Y-125315653D01*
X97511773Y-125376064D01*
X97693768Y-125449728D01*
X97835235Y-125469610D01*
X98030485Y-125448964D01*
X98131423Y-125415063D01*
X98238989Y-125334006D01*
X98306026Y-125199167D01*
X98339163Y-124963388D01*
X98127090Y-126472368D02*
X98206617Y-125906501D01*
X98166853Y-126189435D02*
X97176585Y-126050261D01*
X97331307Y-125975832D01*
X97438872Y-125894775D01*
X97499283Y-125807091D01*
X97010903Y-127229152D02*
X97077176Y-126757596D01*
X97555359Y-126776713D01*
X97501576Y-126817241D01*
X97441166Y-126904925D01*
X97408030Y-127140703D01*
X97441931Y-127241642D01*
X97482459Y-127295425D01*
X97570143Y-127355835D01*
X97805921Y-127388972D01*
X97906860Y-127355071D01*
X97960643Y-127314542D01*
X98021053Y-127226858D01*
X98054189Y-126991080D01*
X98020288Y-126890142D01*
X97979760Y-126836359D01*
%TO.C,D14*%
X59509108Y-122274666D02*
X58509108Y-122274666D01*
X58509108Y-122512761D01*
X58556728Y-122655618D01*
X58651966Y-122750856D01*
X58747204Y-122798475D01*
X58937680Y-122846094D01*
X59080537Y-122846094D01*
X59271013Y-122798475D01*
X59366251Y-122750856D01*
X59461489Y-122655618D01*
X59509108Y-122512761D01*
X59509108Y-122274666D01*
X59509108Y-123798475D02*
X59509108Y-123227047D01*
X59509108Y-123512761D02*
X58509108Y-123512761D01*
X58651966Y-123417523D01*
X58747204Y-123322285D01*
X58794823Y-123227047D01*
X58842442Y-124655618D02*
X59509108Y-124655618D01*
X58461489Y-124417523D02*
X59175775Y-124179428D01*
X59175775Y-124798475D01*
%TO.C,D13*%
X268772606Y-103185678D02*
X267772606Y-103185678D01*
X267772606Y-103423773D01*
X267820226Y-103566630D01*
X267915464Y-103661868D01*
X268010702Y-103709487D01*
X268201178Y-103757106D01*
X268344035Y-103757106D01*
X268534511Y-103709487D01*
X268629749Y-103661868D01*
X268724987Y-103566630D01*
X268772606Y-103423773D01*
X268772606Y-103185678D01*
X268772606Y-104709487D02*
X268772606Y-104138059D01*
X268772606Y-104423773D02*
X267772606Y-104423773D01*
X267915464Y-104328535D01*
X268010702Y-104233297D01*
X268058321Y-104138059D01*
X267772606Y-105042821D02*
X267772606Y-105661868D01*
X268153559Y-105328535D01*
X268153559Y-105471392D01*
X268201178Y-105566630D01*
X268248797Y-105614249D01*
X268344035Y-105661868D01*
X268582130Y-105661868D01*
X268677368Y-105614249D01*
X268724987Y-105566630D01*
X268772606Y-105471392D01*
X268772606Y-105185678D01*
X268724987Y-105090440D01*
X268677368Y-105042821D01*
%TO.C,D12*%
X229483598Y-107857753D02*
X230473866Y-107718580D01*
X230440730Y-107482802D01*
X230373692Y-107347962D01*
X230266126Y-107266906D01*
X230165188Y-107233005D01*
X229969938Y-107212358D01*
X229828471Y-107232240D01*
X229646476Y-107305905D01*
X229558792Y-107366315D01*
X229477735Y-107473881D01*
X229450462Y-107621975D01*
X229483598Y-107857753D01*
X229271525Y-106348773D02*
X229351052Y-106914641D01*
X229311288Y-106631707D02*
X230301557Y-106492534D01*
X230173344Y-106606727D01*
X230092288Y-106714293D01*
X230058387Y-106815231D01*
X230114463Y-105845610D02*
X230154992Y-105791827D01*
X230188893Y-105690888D01*
X230155756Y-105455110D01*
X230095346Y-105367426D01*
X230041563Y-105326898D01*
X229940624Y-105292997D01*
X229846313Y-105306251D01*
X229711474Y-105373289D01*
X229225134Y-106018684D01*
X229138979Y-105405661D01*
%TO.C,D11*%
X191754384Y-113160248D02*
X192744652Y-113021075D01*
X192711516Y-112785297D01*
X192644478Y-112650457D01*
X192536912Y-112569401D01*
X192435974Y-112535500D01*
X192240724Y-112514853D01*
X192099257Y-112534735D01*
X191917262Y-112608400D01*
X191829578Y-112668810D01*
X191748521Y-112776376D01*
X191721248Y-112924470D01*
X191754384Y-113160248D01*
X191542311Y-111651268D02*
X191621838Y-112217136D01*
X191582074Y-111934202D02*
X192572343Y-111795029D01*
X192444130Y-111909222D01*
X192363074Y-112016788D01*
X192329173Y-112117726D01*
X191409765Y-110708156D02*
X191489292Y-111274023D01*
X191449529Y-110991090D02*
X192439797Y-110851916D01*
X192311584Y-110966110D01*
X192230528Y-111073675D01*
X192196627Y-111174614D01*
%TO.C,D10*%
X129287321Y-110075653D02*
X128297053Y-109936480D01*
X128263916Y-110172258D01*
X128291190Y-110320353D01*
X128372247Y-110427918D01*
X128459931Y-110488329D01*
X128641926Y-110561993D01*
X128783393Y-110581875D01*
X128978643Y-110561229D01*
X129079581Y-110527328D01*
X129187147Y-110446271D01*
X129254184Y-110311432D01*
X129287321Y-110075653D01*
X129075248Y-111584633D02*
X129154775Y-111018766D01*
X129115011Y-111301700D02*
X128124743Y-111162526D01*
X128279465Y-111088097D01*
X128387030Y-111007040D01*
X128447441Y-110919356D01*
X127998825Y-112058483D02*
X127985570Y-112152795D01*
X128019471Y-112253733D01*
X128059999Y-112307516D01*
X128147683Y-112367926D01*
X128329679Y-112441591D01*
X128565457Y-112474727D01*
X128760707Y-112454081D01*
X128861645Y-112420180D01*
X128915428Y-112379652D01*
X128975838Y-112291968D01*
X128989093Y-112197656D01*
X128955192Y-112096718D01*
X128914663Y-112042935D01*
X128826979Y-111982525D01*
X128644984Y-111908860D01*
X128409206Y-111875724D01*
X128213956Y-111896370D01*
X128113018Y-111930271D01*
X128059235Y-111970799D01*
X127998825Y-112058483D01*
%TO.C,D9*%
X91491834Y-105244714D02*
X90501566Y-105105541D01*
X90468429Y-105341319D01*
X90495703Y-105489413D01*
X90576760Y-105596979D01*
X90664444Y-105657389D01*
X90846439Y-105731054D01*
X90987906Y-105750935D01*
X91183156Y-105730289D01*
X91284094Y-105696388D01*
X91391660Y-105615331D01*
X91458697Y-105480492D01*
X91491834Y-105244714D01*
X91346034Y-106282137D02*
X91319524Y-106470760D01*
X91259114Y-106558444D01*
X91205331Y-106598972D01*
X91050610Y-106673401D01*
X90855360Y-106694048D01*
X90478115Y-106641030D01*
X90390431Y-106580619D01*
X90349903Y-106526836D01*
X90316002Y-106425898D01*
X90342511Y-106237275D01*
X90402921Y-106149591D01*
X90456704Y-106109063D01*
X90557643Y-106075162D01*
X90793421Y-106108299D01*
X90881105Y-106168709D01*
X90921633Y-106222492D01*
X90955534Y-106323430D01*
X90929025Y-106512053D01*
X90868615Y-106599737D01*
X90814832Y-106640265D01*
X90713893Y-106674166D01*
%TO.C,D8*%
X52936609Y-103510059D02*
X51936609Y-103510059D01*
X51936609Y-103748155D01*
X51984229Y-103891012D01*
X52079467Y-103986250D01*
X52174705Y-104033869D01*
X52365181Y-104081488D01*
X52508038Y-104081488D01*
X52698514Y-104033869D01*
X52793752Y-103986250D01*
X52888990Y-103891012D01*
X52936609Y-103748155D01*
X52936609Y-103510059D01*
X52365181Y-104652916D02*
X52317562Y-104557678D01*
X52269943Y-104510059D01*
X52174705Y-104462440D01*
X52127086Y-104462440D01*
X52031848Y-104510059D01*
X51984229Y-104557678D01*
X51936609Y-104652916D01*
X51936609Y-104843393D01*
X51984229Y-104938631D01*
X52031848Y-104986250D01*
X52127086Y-105033869D01*
X52174705Y-105033869D01*
X52269943Y-104986250D01*
X52317562Y-104938631D01*
X52365181Y-104843393D01*
X52365181Y-104652916D01*
X52412800Y-104557678D01*
X52460419Y-104510059D01*
X52555657Y-104462440D01*
X52746133Y-104462440D01*
X52841371Y-104510059D01*
X52888990Y-104557678D01*
X52936609Y-104652916D01*
X52936609Y-104843393D01*
X52888990Y-104938631D01*
X52841371Y-104986250D01*
X52746133Y-105033869D01*
X52555657Y-105033869D01*
X52460419Y-104986250D01*
X52412800Y-104938631D01*
X52365181Y-104843393D01*
%TO.C,D7*%
X299444357Y-84420969D02*
X298444357Y-84420969D01*
X298444357Y-84659065D01*
X298491977Y-84801922D01*
X298587215Y-84897160D01*
X298682453Y-84944779D01*
X298872929Y-84992398D01*
X299015786Y-84992398D01*
X299206262Y-84944779D01*
X299301500Y-84897160D01*
X299396738Y-84801922D01*
X299444357Y-84659065D01*
X299444357Y-84420969D01*
X298444357Y-85325731D02*
X298444357Y-85992398D01*
X299444357Y-85563826D01*
%TO.C,D6*%
X261344357Y-84420969D02*
X260344357Y-84420969D01*
X260344357Y-84659065D01*
X260391977Y-84801922D01*
X260487215Y-84897160D01*
X260582453Y-84944779D01*
X260772929Y-84992398D01*
X260915786Y-84992398D01*
X261106262Y-84944779D01*
X261201500Y-84897160D01*
X261296738Y-84801922D01*
X261344357Y-84659065D01*
X261344357Y-84420969D01*
X260344357Y-85849541D02*
X260344357Y-85659065D01*
X260391977Y-85563826D01*
X260439596Y-85516207D01*
X260582453Y-85420969D01*
X260772929Y-85373350D01*
X261153881Y-85373350D01*
X261249119Y-85420969D01*
X261296738Y-85468588D01*
X261344357Y-85563826D01*
X261344357Y-85754303D01*
X261296738Y-85849541D01*
X261249119Y-85897160D01*
X261153881Y-85944779D01*
X260915786Y-85944779D01*
X260820548Y-85897160D01*
X260772929Y-85849541D01*
X260725310Y-85754303D01*
X260725310Y-85563826D01*
X260772929Y-85468588D01*
X260820548Y-85420969D01*
X260915786Y-85373350D01*
%TO.C,D5*%
X222049926Y-89184402D02*
X223040194Y-89045229D01*
X223007058Y-88809451D01*
X222940020Y-88674611D01*
X222832454Y-88593554D01*
X222731516Y-88559653D01*
X222536266Y-88539007D01*
X222394799Y-88558889D01*
X222212804Y-88632554D01*
X222125120Y-88692964D01*
X222044063Y-88800530D01*
X222016790Y-88948624D01*
X222049926Y-89184402D01*
X222834748Y-87583405D02*
X222901021Y-88054961D01*
X222436092Y-88168389D01*
X222476620Y-88114606D01*
X222510521Y-88013668D01*
X222477385Y-87777890D01*
X222416975Y-87690206D01*
X222363192Y-87649677D01*
X222262253Y-87615776D01*
X222026475Y-87648913D01*
X221938791Y-87709323D01*
X221898263Y-87763106D01*
X221864362Y-87864044D01*
X221897498Y-88099823D01*
X221957909Y-88187507D01*
X222011692Y-88228035D01*
%TO.C,D4*%
X184320712Y-94486898D02*
X185310980Y-94347725D01*
X185277844Y-94111947D01*
X185210806Y-93977107D01*
X185103240Y-93896050D01*
X185002302Y-93862149D01*
X184807052Y-93841503D01*
X184665585Y-93861385D01*
X184483590Y-93935050D01*
X184395906Y-93995460D01*
X184314849Y-94103026D01*
X184287576Y-94251120D01*
X184320712Y-94486898D01*
X184782072Y-92979447D02*
X184121893Y-93072229D01*
X185192454Y-93162207D02*
X184518256Y-93497394D01*
X184432101Y-92884371D01*
%TO.C,D3*%
X127156144Y-91019791D02*
X126165876Y-90880618D01*
X126132739Y-91116396D01*
X126160013Y-91264490D01*
X126241070Y-91372056D01*
X126328754Y-91432466D01*
X126510749Y-91506131D01*
X126652216Y-91526012D01*
X126847466Y-91505366D01*
X126948404Y-91471465D01*
X127055970Y-91390408D01*
X127123007Y-91255569D01*
X127156144Y-91019791D01*
X126039957Y-91776574D02*
X125953803Y-92389597D01*
X126377439Y-92112526D01*
X126357557Y-92253993D01*
X126391458Y-92354932D01*
X126431986Y-92408715D01*
X126519670Y-92469125D01*
X126755448Y-92502261D01*
X126856387Y-92468360D01*
X126910170Y-92427832D01*
X126970580Y-92340148D01*
X127010344Y-92057214D01*
X126976442Y-91956276D01*
X126935914Y-91902493D01*
%TO.C,D2*%
X89426930Y-85717296D02*
X88436662Y-85578123D01*
X88403525Y-85813901D01*
X88430799Y-85961995D01*
X88511856Y-86069561D01*
X88599540Y-86129971D01*
X88781535Y-86203636D01*
X88923002Y-86223517D01*
X89118252Y-86202871D01*
X89219190Y-86168970D01*
X89326756Y-86087913D01*
X89393793Y-85953074D01*
X89426930Y-85717296D01*
X88398427Y-86534490D02*
X88344644Y-86575018D01*
X88284234Y-86662702D01*
X88251098Y-86898480D01*
X88284999Y-86999418D01*
X88325527Y-87053201D01*
X88413211Y-87113612D01*
X88507522Y-87126866D01*
X88655616Y-87099592D01*
X89301011Y-86613252D01*
X89214857Y-87226276D01*
%TO.C,D1*%
X50746358Y-84269859D02*
X49746358Y-84269859D01*
X49746358Y-84507955D01*
X49793978Y-84650812D01*
X49889216Y-84746050D01*
X49984454Y-84793669D01*
X50174930Y-84841288D01*
X50317787Y-84841288D01*
X50508263Y-84793669D01*
X50603501Y-84746050D01*
X50698739Y-84650812D01*
X50746358Y-84507955D01*
X50746358Y-84269859D01*
X50746358Y-85793669D02*
X50746358Y-85222240D01*
X50746358Y-85507955D02*
X49746358Y-85507955D01*
X49889216Y-85412716D01*
X49984454Y-85317478D01*
X50032073Y-85222240D01*
%TO.C,C9*%
X171159567Y-112867128D02*
X171207186Y-112819509D01*
X171254805Y-112676652D01*
X171254805Y-112581414D01*
X171207186Y-112438556D01*
X171111948Y-112343318D01*
X171016710Y-112295699D01*
X170826234Y-112248080D01*
X170683377Y-112248080D01*
X170492901Y-112295699D01*
X170397663Y-112343318D01*
X170302425Y-112438556D01*
X170254805Y-112581414D01*
X170254805Y-112676652D01*
X170302425Y-112819509D01*
X170350044Y-112867128D01*
X171254805Y-113343318D02*
X171254805Y-113533795D01*
X171207186Y-113629033D01*
X171159567Y-113676652D01*
X171016710Y-113771890D01*
X170826234Y-113819509D01*
X170445282Y-113819509D01*
X170350044Y-113771890D01*
X170302425Y-113724271D01*
X170254805Y-113629033D01*
X170254805Y-113438556D01*
X170302425Y-113343318D01*
X170350044Y-113295699D01*
X170445282Y-113248080D01*
X170683377Y-113248080D01*
X170778615Y-113295699D01*
X170826234Y-113343318D01*
X170873853Y-113438556D01*
X170873853Y-113629033D01*
X170826234Y-113724271D01*
X170778615Y-113771890D01*
X170683377Y-113819509D01*
%TO.C,C8*%
X173299567Y-112867128D02*
X173347186Y-112819509D01*
X173394805Y-112676652D01*
X173394805Y-112581414D01*
X173347186Y-112438556D01*
X173251948Y-112343318D01*
X173156710Y-112295699D01*
X172966234Y-112248080D01*
X172823377Y-112248080D01*
X172632901Y-112295699D01*
X172537663Y-112343318D01*
X172442425Y-112438556D01*
X172394805Y-112581414D01*
X172394805Y-112676652D01*
X172442425Y-112819509D01*
X172490044Y-112867128D01*
X172823377Y-113438556D02*
X172775758Y-113343318D01*
X172728139Y-113295699D01*
X172632901Y-113248080D01*
X172585282Y-113248080D01*
X172490044Y-113295699D01*
X172442425Y-113343318D01*
X172394805Y-113438556D01*
X172394805Y-113629033D01*
X172442425Y-113724271D01*
X172490044Y-113771890D01*
X172585282Y-113819509D01*
X172632901Y-113819509D01*
X172728139Y-113771890D01*
X172775758Y-113724271D01*
X172823377Y-113629033D01*
X172823377Y-113438556D01*
X172870996Y-113343318D01*
X172918615Y-113295699D01*
X173013853Y-113248080D01*
X173204329Y-113248080D01*
X173299567Y-113295699D01*
X173347186Y-113343318D01*
X173394805Y-113438556D01*
X173394805Y-113629033D01*
X173347186Y-113724271D01*
X173299567Y-113771890D01*
X173204329Y-113819509D01*
X173013853Y-113819509D01*
X172918615Y-113771890D01*
X172870996Y-113724271D01*
X172823377Y-113629033D01*
%TO.C,C7*%
X158481651Y-117882319D02*
X158548994Y-117882319D01*
X158683681Y-117814975D01*
X158751025Y-117747632D01*
X158818368Y-117612944D01*
X158818368Y-117478257D01*
X158784697Y-117377242D01*
X158683681Y-117208883D01*
X158582666Y-117107868D01*
X158414307Y-117006853D01*
X158313292Y-116973181D01*
X158178605Y-116973181D01*
X158043918Y-117040525D01*
X157976574Y-117107868D01*
X157909231Y-117242555D01*
X157909231Y-117309899D01*
X157606185Y-117478257D02*
X157134781Y-117949662D01*
X158144933Y-118353723D01*
%TO.C,C6*%
X159556651Y-118957319D02*
X159623994Y-118957319D01*
X159758681Y-118889975D01*
X159826025Y-118822632D01*
X159893368Y-118687944D01*
X159893368Y-118553257D01*
X159859697Y-118452242D01*
X159758681Y-118283883D01*
X159657666Y-118182868D01*
X159489307Y-118081853D01*
X159388292Y-118048181D01*
X159253605Y-118048181D01*
X159118918Y-118115525D01*
X159051574Y-118182868D01*
X158984231Y-118317555D01*
X158984231Y-118384899D01*
X158310796Y-118923647D02*
X158445483Y-118788960D01*
X158546498Y-118755288D01*
X158613842Y-118755288D01*
X158782200Y-118788960D01*
X158950559Y-118889975D01*
X159219933Y-119159349D01*
X159253605Y-119260364D01*
X159253605Y-119327708D01*
X159219933Y-119428723D01*
X159085246Y-119563410D01*
X158984231Y-119597082D01*
X158916887Y-119597082D01*
X158815872Y-119563410D01*
X158647513Y-119395051D01*
X158613842Y-119294036D01*
X158613842Y-119226693D01*
X158647513Y-119125677D01*
X158782200Y-118990990D01*
X158883216Y-118957319D01*
X158950559Y-118957319D01*
X159051574Y-118990990D01*
%TO.C,C5*%
X155526574Y-130390347D02*
X155526574Y-130457690D01*
X155593918Y-130592377D01*
X155661262Y-130659721D01*
X155795949Y-130727064D01*
X155930636Y-130727064D01*
X156031651Y-130693393D01*
X156200010Y-130592377D01*
X156301025Y-130491362D01*
X156402040Y-130323003D01*
X156435712Y-130221988D01*
X156435712Y-130087301D01*
X156368368Y-129952614D01*
X156301025Y-129885270D01*
X156166338Y-129817927D01*
X156098994Y-129817927D01*
X155526574Y-129110820D02*
X155863292Y-129447538D01*
X155560246Y-129817927D01*
X155560246Y-129750583D01*
X155526574Y-129649568D01*
X155358216Y-129481209D01*
X155257200Y-129447538D01*
X155189857Y-129447538D01*
X155088842Y-129481209D01*
X154920483Y-129649568D01*
X154886811Y-129750583D01*
X154886811Y-129817927D01*
X154920483Y-129918942D01*
X155088842Y-130087301D01*
X155189857Y-130120973D01*
X155257200Y-130120973D01*
%TO.C,C4*%
X165901574Y-134615347D02*
X165901574Y-134682690D01*
X165968918Y-134817377D01*
X166036262Y-134884721D01*
X166170949Y-134952064D01*
X166305636Y-134952064D01*
X166406651Y-134918393D01*
X166575010Y-134817377D01*
X166676025Y-134716362D01*
X166777040Y-134548003D01*
X166810712Y-134446988D01*
X166810712Y-134312301D01*
X166743368Y-134177614D01*
X166676025Y-134110270D01*
X166541338Y-134042927D01*
X166473994Y-134042927D01*
X165699544Y-133605194D02*
X165228139Y-134076599D01*
X166137277Y-133504179D02*
X165800559Y-134177614D01*
X165362826Y-133739881D01*
%TO.C,C3*%
X170248900Y-122743021D02*
X170248900Y-122810364D01*
X170316244Y-122945051D01*
X170383588Y-123012395D01*
X170518275Y-123079738D01*
X170652962Y-123079738D01*
X170753977Y-123046067D01*
X170922336Y-122945051D01*
X171023351Y-122844036D01*
X171124366Y-122675677D01*
X171158038Y-122574662D01*
X171158038Y-122439975D01*
X171090694Y-122305288D01*
X171023351Y-122237944D01*
X170888664Y-122170601D01*
X170821320Y-122170601D01*
X170652962Y-121867555D02*
X170215229Y-121429822D01*
X170181557Y-121934899D01*
X170080542Y-121833883D01*
X169979526Y-121800212D01*
X169912183Y-121800212D01*
X169811168Y-121833883D01*
X169642809Y-122002242D01*
X169609137Y-122103257D01*
X169609137Y-122170601D01*
X169642809Y-122271616D01*
X169844839Y-122473647D01*
X169945855Y-122507319D01*
X170013198Y-122507319D01*
%TO.C,C1*%
X166848900Y-133668021D02*
X166848900Y-133735364D01*
X166916244Y-133870051D01*
X166983588Y-133937395D01*
X167118275Y-134004738D01*
X167252962Y-134004738D01*
X167353977Y-133971067D01*
X167522336Y-133870051D01*
X167623351Y-133769036D01*
X167724366Y-133600677D01*
X167758038Y-133499662D01*
X167758038Y-133364975D01*
X167690694Y-133230288D01*
X167623351Y-133162944D01*
X167488664Y-133095601D01*
X167421320Y-133095601D01*
X166108122Y-133061929D02*
X166512183Y-133465990D01*
X166310152Y-133263960D02*
X167017259Y-132556853D01*
X166983588Y-132725212D01*
X166983588Y-132859899D01*
X167017259Y-132960914D01*
%TD*%
M02*
