%TF.GenerationSoftware,KiCad,Pcbnew,(5.1.8)-1*%
%TF.CreationDate,2021-05-05T18:46:58+02:00*%
%TF.ProjectId,Annelise,416e6e65-6c69-4736-952e-6b696361645f,rev?*%
%TF.SameCoordinates,Original*%
%TF.FileFunction,Soldermask,Bot*%
%TF.FilePolarity,Negative*%
%FSLAX46Y46*%
G04 Gerber Fmt 4.6, Leading zero omitted, Abs format (unit mm)*
G04 Created by KiCad (PCBNEW (5.1.8)-1) date 2021-05-05 18:46:58*
%MOMM*%
%LPD*%
G01*
G04 APERTURE LIST*
%ADD10C,0.100000*%
%ADD11R,0.800000X0.900000*%
%ADD12C,2.300000*%
%ADD13C,1.750000*%
%ADD14C,3.987800*%
%ADD15C,3.048000*%
%ADD16O,1.700000X1.700000*%
%ADD17R,1.700000X1.700000*%
G04 APERTURE END LIST*
D10*
%TO.C,Y1*%
G36*
X167543567Y-131394150D02*
G01*
X168887070Y-132737653D01*
X168604227Y-133020496D01*
X167260724Y-131676993D01*
X167543567Y-131394150D01*
G37*
G36*
X168392095Y-130545622D02*
G01*
X169735598Y-131889125D01*
X169452755Y-132171968D01*
X168109252Y-130828465D01*
X168392095Y-130545622D01*
G37*
G36*
X169240623Y-129697094D02*
G01*
X170584126Y-131040597D01*
X170301283Y-131323440D01*
X168957780Y-129979937D01*
X169240623Y-129697094D01*
G37*
%TD*%
D11*
%TO.C,U3*%
X171872425Y-112033795D03*
X170922425Y-114033795D03*
X172822425Y-114033795D03*
%TD*%
%TO.C,U2*%
G36*
G01*
X168484825Y-124822615D02*
X167547909Y-125759531D01*
G75*
G02*
X167441843Y-125759531I-53033J53033D01*
G01*
X167335777Y-125653465D01*
G75*
G02*
X167335777Y-125547399I53033J53033D01*
G01*
X168272693Y-124610483D01*
G75*
G02*
X168378759Y-124610483I53033J-53033D01*
G01*
X168484825Y-124716549D01*
G75*
G02*
X168484825Y-124822615I-53033J-53033D01*
G01*
G37*
G36*
G01*
X168131271Y-124469061D02*
X167194355Y-125405977D01*
G75*
G02*
X167088289Y-125405977I-53033J53033D01*
G01*
X166982223Y-125299911D01*
G75*
G02*
X166982223Y-125193845I53033J53033D01*
G01*
X167919139Y-124256929D01*
G75*
G02*
X168025205Y-124256929I53033J-53033D01*
G01*
X168131271Y-124362995D01*
G75*
G02*
X168131271Y-124469061I-53033J-53033D01*
G01*
G37*
G36*
G01*
X167777718Y-124115508D02*
X166840802Y-125052424D01*
G75*
G02*
X166734736Y-125052424I-53033J53033D01*
G01*
X166628670Y-124946358D01*
G75*
G02*
X166628670Y-124840292I53033J53033D01*
G01*
X167565586Y-123903376D01*
G75*
G02*
X167671652Y-123903376I53033J-53033D01*
G01*
X167777718Y-124009442D01*
G75*
G02*
X167777718Y-124115508I-53033J-53033D01*
G01*
G37*
G36*
G01*
X167424164Y-123761954D02*
X166487248Y-124698870D01*
G75*
G02*
X166381182Y-124698870I-53033J53033D01*
G01*
X166275116Y-124592804D01*
G75*
G02*
X166275116Y-124486738I53033J53033D01*
G01*
X167212032Y-123549822D01*
G75*
G02*
X167318098Y-123549822I53033J-53033D01*
G01*
X167424164Y-123655888D01*
G75*
G02*
X167424164Y-123761954I-53033J-53033D01*
G01*
G37*
G36*
G01*
X167070611Y-123408401D02*
X166133695Y-124345317D01*
G75*
G02*
X166027629Y-124345317I-53033J53033D01*
G01*
X165921563Y-124239251D01*
G75*
G02*
X165921563Y-124133185I53033J53033D01*
G01*
X166858479Y-123196269D01*
G75*
G02*
X166964545Y-123196269I53033J-53033D01*
G01*
X167070611Y-123302335D01*
G75*
G02*
X167070611Y-123408401I-53033J-53033D01*
G01*
G37*
G36*
G01*
X166717058Y-123054848D02*
X165780142Y-123991764D01*
G75*
G02*
X165674076Y-123991764I-53033J53033D01*
G01*
X165568010Y-123885698D01*
G75*
G02*
X165568010Y-123779632I53033J53033D01*
G01*
X166504926Y-122842716D01*
G75*
G02*
X166610992Y-122842716I53033J-53033D01*
G01*
X166717058Y-122948782D01*
G75*
G02*
X166717058Y-123054848I-53033J-53033D01*
G01*
G37*
G36*
G01*
X166363504Y-122701294D02*
X165426588Y-123638210D01*
G75*
G02*
X165320522Y-123638210I-53033J53033D01*
G01*
X165214456Y-123532144D01*
G75*
G02*
X165214456Y-123426078I53033J53033D01*
G01*
X166151372Y-122489162D01*
G75*
G02*
X166257438Y-122489162I53033J-53033D01*
G01*
X166363504Y-122595228D01*
G75*
G02*
X166363504Y-122701294I-53033J-53033D01*
G01*
G37*
G36*
G01*
X166009951Y-122347741D02*
X165073035Y-123284657D01*
G75*
G02*
X164966969Y-123284657I-53033J53033D01*
G01*
X164860903Y-123178591D01*
G75*
G02*
X164860903Y-123072525I53033J53033D01*
G01*
X165797819Y-122135609D01*
G75*
G02*
X165903885Y-122135609I53033J-53033D01*
G01*
X166009951Y-122241675D01*
G75*
G02*
X166009951Y-122347741I-53033J-53033D01*
G01*
G37*
G36*
G01*
X165656398Y-121994188D02*
X164719482Y-122931104D01*
G75*
G02*
X164613416Y-122931104I-53033J53033D01*
G01*
X164507350Y-122825038D01*
G75*
G02*
X164507350Y-122718972I53033J53033D01*
G01*
X165444266Y-121782056D01*
G75*
G02*
X165550332Y-121782056I53033J-53033D01*
G01*
X165656398Y-121888122D01*
G75*
G02*
X165656398Y-121994188I-53033J-53033D01*
G01*
G37*
G36*
G01*
X165302844Y-121640634D02*
X164365928Y-122577550D01*
G75*
G02*
X164259862Y-122577550I-53033J53033D01*
G01*
X164153796Y-122471484D01*
G75*
G02*
X164153796Y-122365418I53033J53033D01*
G01*
X165090712Y-121428502D01*
G75*
G02*
X165196778Y-121428502I53033J-53033D01*
G01*
X165302844Y-121534568D01*
G75*
G02*
X165302844Y-121640634I-53033J-53033D01*
G01*
G37*
G36*
G01*
X164949291Y-121287081D02*
X164012375Y-122223997D01*
G75*
G02*
X163906309Y-122223997I-53033J53033D01*
G01*
X163800243Y-122117931D01*
G75*
G02*
X163800243Y-122011865I53033J53033D01*
G01*
X164737159Y-121074949D01*
G75*
G02*
X164843225Y-121074949I53033J-53033D01*
G01*
X164949291Y-121181015D01*
G75*
G02*
X164949291Y-121287081I-53033J-53033D01*
G01*
G37*
G36*
G01*
X164595737Y-120933527D02*
X163658821Y-121870443D01*
G75*
G02*
X163552755Y-121870443I-53033J53033D01*
G01*
X163446689Y-121764377D01*
G75*
G02*
X163446689Y-121658311I53033J53033D01*
G01*
X164383605Y-120721395D01*
G75*
G02*
X164489671Y-120721395I53033J-53033D01*
G01*
X164595737Y-120827461D01*
G75*
G02*
X164595737Y-120933527I-53033J-53033D01*
G01*
G37*
G36*
G01*
X162598161Y-121764377D02*
X162492095Y-121870443D01*
G75*
G02*
X162386029Y-121870443I-53033J53033D01*
G01*
X161449113Y-120933527D01*
G75*
G02*
X161449113Y-120827461I53033J53033D01*
G01*
X161555179Y-120721395D01*
G75*
G02*
X161661245Y-120721395I53033J-53033D01*
G01*
X162598161Y-121658311D01*
G75*
G02*
X162598161Y-121764377I-53033J-53033D01*
G01*
G37*
G36*
G01*
X162244607Y-122117931D02*
X162138541Y-122223997D01*
G75*
G02*
X162032475Y-122223997I-53033J53033D01*
G01*
X161095559Y-121287081D01*
G75*
G02*
X161095559Y-121181015I53033J53033D01*
G01*
X161201625Y-121074949D01*
G75*
G02*
X161307691Y-121074949I53033J-53033D01*
G01*
X162244607Y-122011865D01*
G75*
G02*
X162244607Y-122117931I-53033J-53033D01*
G01*
G37*
G36*
G01*
X161891054Y-122471484D02*
X161784988Y-122577550D01*
G75*
G02*
X161678922Y-122577550I-53033J53033D01*
G01*
X160742006Y-121640634D01*
G75*
G02*
X160742006Y-121534568I53033J53033D01*
G01*
X160848072Y-121428502D01*
G75*
G02*
X160954138Y-121428502I53033J-53033D01*
G01*
X161891054Y-122365418D01*
G75*
G02*
X161891054Y-122471484I-53033J-53033D01*
G01*
G37*
G36*
G01*
X161537500Y-122825038D02*
X161431434Y-122931104D01*
G75*
G02*
X161325368Y-122931104I-53033J53033D01*
G01*
X160388452Y-121994188D01*
G75*
G02*
X160388452Y-121888122I53033J53033D01*
G01*
X160494518Y-121782056D01*
G75*
G02*
X160600584Y-121782056I53033J-53033D01*
G01*
X161537500Y-122718972D01*
G75*
G02*
X161537500Y-122825038I-53033J-53033D01*
G01*
G37*
G36*
G01*
X161183947Y-123178591D02*
X161077881Y-123284657D01*
G75*
G02*
X160971815Y-123284657I-53033J53033D01*
G01*
X160034899Y-122347741D01*
G75*
G02*
X160034899Y-122241675I53033J53033D01*
G01*
X160140965Y-122135609D01*
G75*
G02*
X160247031Y-122135609I53033J-53033D01*
G01*
X161183947Y-123072525D01*
G75*
G02*
X161183947Y-123178591I-53033J-53033D01*
G01*
G37*
G36*
G01*
X160830394Y-123532144D02*
X160724328Y-123638210D01*
G75*
G02*
X160618262Y-123638210I-53033J53033D01*
G01*
X159681346Y-122701294D01*
G75*
G02*
X159681346Y-122595228I53033J53033D01*
G01*
X159787412Y-122489162D01*
G75*
G02*
X159893478Y-122489162I53033J-53033D01*
G01*
X160830394Y-123426078D01*
G75*
G02*
X160830394Y-123532144I-53033J-53033D01*
G01*
G37*
G36*
G01*
X160476840Y-123885698D02*
X160370774Y-123991764D01*
G75*
G02*
X160264708Y-123991764I-53033J53033D01*
G01*
X159327792Y-123054848D01*
G75*
G02*
X159327792Y-122948782I53033J53033D01*
G01*
X159433858Y-122842716D01*
G75*
G02*
X159539924Y-122842716I53033J-53033D01*
G01*
X160476840Y-123779632D01*
G75*
G02*
X160476840Y-123885698I-53033J-53033D01*
G01*
G37*
G36*
G01*
X160123287Y-124239251D02*
X160017221Y-124345317D01*
G75*
G02*
X159911155Y-124345317I-53033J53033D01*
G01*
X158974239Y-123408401D01*
G75*
G02*
X158974239Y-123302335I53033J53033D01*
G01*
X159080305Y-123196269D01*
G75*
G02*
X159186371Y-123196269I53033J-53033D01*
G01*
X160123287Y-124133185D01*
G75*
G02*
X160123287Y-124239251I-53033J-53033D01*
G01*
G37*
G36*
G01*
X159769734Y-124592804D02*
X159663668Y-124698870D01*
G75*
G02*
X159557602Y-124698870I-53033J53033D01*
G01*
X158620686Y-123761954D01*
G75*
G02*
X158620686Y-123655888I53033J53033D01*
G01*
X158726752Y-123549822D01*
G75*
G02*
X158832818Y-123549822I53033J-53033D01*
G01*
X159769734Y-124486738D01*
G75*
G02*
X159769734Y-124592804I-53033J-53033D01*
G01*
G37*
G36*
G01*
X159416180Y-124946358D02*
X159310114Y-125052424D01*
G75*
G02*
X159204048Y-125052424I-53033J53033D01*
G01*
X158267132Y-124115508D01*
G75*
G02*
X158267132Y-124009442I53033J53033D01*
G01*
X158373198Y-123903376D01*
G75*
G02*
X158479264Y-123903376I53033J-53033D01*
G01*
X159416180Y-124840292D01*
G75*
G02*
X159416180Y-124946358I-53033J-53033D01*
G01*
G37*
G36*
G01*
X159062627Y-125299911D02*
X158956561Y-125405977D01*
G75*
G02*
X158850495Y-125405977I-53033J53033D01*
G01*
X157913579Y-124469061D01*
G75*
G02*
X157913579Y-124362995I53033J53033D01*
G01*
X158019645Y-124256929D01*
G75*
G02*
X158125711Y-124256929I53033J-53033D01*
G01*
X159062627Y-125193845D01*
G75*
G02*
X159062627Y-125299911I-53033J-53033D01*
G01*
G37*
G36*
G01*
X158709073Y-125653465D02*
X158603007Y-125759531D01*
G75*
G02*
X158496941Y-125759531I-53033J53033D01*
G01*
X157560025Y-124822615D01*
G75*
G02*
X157560025Y-124716549I53033J53033D01*
G01*
X157666091Y-124610483D01*
G75*
G02*
X157772157Y-124610483I53033J-53033D01*
G01*
X158709073Y-125547399D01*
G75*
G02*
X158709073Y-125653465I-53033J-53033D01*
G01*
G37*
G36*
G01*
X158709073Y-126820191D02*
X157772157Y-127757107D01*
G75*
G02*
X157666091Y-127757107I-53033J53033D01*
G01*
X157560025Y-127651041D01*
G75*
G02*
X157560025Y-127544975I53033J53033D01*
G01*
X158496941Y-126608059D01*
G75*
G02*
X158603007Y-126608059I53033J-53033D01*
G01*
X158709073Y-126714125D01*
G75*
G02*
X158709073Y-126820191I-53033J-53033D01*
G01*
G37*
G36*
G01*
X159062627Y-127173745D02*
X158125711Y-128110661D01*
G75*
G02*
X158019645Y-128110661I-53033J53033D01*
G01*
X157913579Y-128004595D01*
G75*
G02*
X157913579Y-127898529I53033J53033D01*
G01*
X158850495Y-126961613D01*
G75*
G02*
X158956561Y-126961613I53033J-53033D01*
G01*
X159062627Y-127067679D01*
G75*
G02*
X159062627Y-127173745I-53033J-53033D01*
G01*
G37*
G36*
G01*
X159416180Y-127527298D02*
X158479264Y-128464214D01*
G75*
G02*
X158373198Y-128464214I-53033J53033D01*
G01*
X158267132Y-128358148D01*
G75*
G02*
X158267132Y-128252082I53033J53033D01*
G01*
X159204048Y-127315166D01*
G75*
G02*
X159310114Y-127315166I53033J-53033D01*
G01*
X159416180Y-127421232D01*
G75*
G02*
X159416180Y-127527298I-53033J-53033D01*
G01*
G37*
G36*
G01*
X159769734Y-127880852D02*
X158832818Y-128817768D01*
G75*
G02*
X158726752Y-128817768I-53033J53033D01*
G01*
X158620686Y-128711702D01*
G75*
G02*
X158620686Y-128605636I53033J53033D01*
G01*
X159557602Y-127668720D01*
G75*
G02*
X159663668Y-127668720I53033J-53033D01*
G01*
X159769734Y-127774786D01*
G75*
G02*
X159769734Y-127880852I-53033J-53033D01*
G01*
G37*
G36*
G01*
X160123287Y-128234405D02*
X159186371Y-129171321D01*
G75*
G02*
X159080305Y-129171321I-53033J53033D01*
G01*
X158974239Y-129065255D01*
G75*
G02*
X158974239Y-128959189I53033J53033D01*
G01*
X159911155Y-128022273D01*
G75*
G02*
X160017221Y-128022273I53033J-53033D01*
G01*
X160123287Y-128128339D01*
G75*
G02*
X160123287Y-128234405I-53033J-53033D01*
G01*
G37*
G36*
G01*
X160476840Y-128587958D02*
X159539924Y-129524874D01*
G75*
G02*
X159433858Y-129524874I-53033J53033D01*
G01*
X159327792Y-129418808D01*
G75*
G02*
X159327792Y-129312742I53033J53033D01*
G01*
X160264708Y-128375826D01*
G75*
G02*
X160370774Y-128375826I53033J-53033D01*
G01*
X160476840Y-128481892D01*
G75*
G02*
X160476840Y-128587958I-53033J-53033D01*
G01*
G37*
G36*
G01*
X160830394Y-128941512D02*
X159893478Y-129878428D01*
G75*
G02*
X159787412Y-129878428I-53033J53033D01*
G01*
X159681346Y-129772362D01*
G75*
G02*
X159681346Y-129666296I53033J53033D01*
G01*
X160618262Y-128729380D01*
G75*
G02*
X160724328Y-128729380I53033J-53033D01*
G01*
X160830394Y-128835446D01*
G75*
G02*
X160830394Y-128941512I-53033J-53033D01*
G01*
G37*
G36*
G01*
X161183947Y-129295065D02*
X160247031Y-130231981D01*
G75*
G02*
X160140965Y-130231981I-53033J53033D01*
G01*
X160034899Y-130125915D01*
G75*
G02*
X160034899Y-130019849I53033J53033D01*
G01*
X160971815Y-129082933D01*
G75*
G02*
X161077881Y-129082933I53033J-53033D01*
G01*
X161183947Y-129188999D01*
G75*
G02*
X161183947Y-129295065I-53033J-53033D01*
G01*
G37*
G36*
G01*
X161537500Y-129648618D02*
X160600584Y-130585534D01*
G75*
G02*
X160494518Y-130585534I-53033J53033D01*
G01*
X160388452Y-130479468D01*
G75*
G02*
X160388452Y-130373402I53033J53033D01*
G01*
X161325368Y-129436486D01*
G75*
G02*
X161431434Y-129436486I53033J-53033D01*
G01*
X161537500Y-129542552D01*
G75*
G02*
X161537500Y-129648618I-53033J-53033D01*
G01*
G37*
G36*
G01*
X161891054Y-130002172D02*
X160954138Y-130939088D01*
G75*
G02*
X160848072Y-130939088I-53033J53033D01*
G01*
X160742006Y-130833022D01*
G75*
G02*
X160742006Y-130726956I53033J53033D01*
G01*
X161678922Y-129790040D01*
G75*
G02*
X161784988Y-129790040I53033J-53033D01*
G01*
X161891054Y-129896106D01*
G75*
G02*
X161891054Y-130002172I-53033J-53033D01*
G01*
G37*
G36*
G01*
X162244607Y-130355725D02*
X161307691Y-131292641D01*
G75*
G02*
X161201625Y-131292641I-53033J53033D01*
G01*
X161095559Y-131186575D01*
G75*
G02*
X161095559Y-131080509I53033J53033D01*
G01*
X162032475Y-130143593D01*
G75*
G02*
X162138541Y-130143593I53033J-53033D01*
G01*
X162244607Y-130249659D01*
G75*
G02*
X162244607Y-130355725I-53033J-53033D01*
G01*
G37*
G36*
G01*
X162598161Y-130709279D02*
X161661245Y-131646195D01*
G75*
G02*
X161555179Y-131646195I-53033J53033D01*
G01*
X161449113Y-131540129D01*
G75*
G02*
X161449113Y-131434063I53033J53033D01*
G01*
X162386029Y-130497147D01*
G75*
G02*
X162492095Y-130497147I53033J-53033D01*
G01*
X162598161Y-130603213D01*
G75*
G02*
X162598161Y-130709279I-53033J-53033D01*
G01*
G37*
G36*
G01*
X164595737Y-131540129D02*
X164489671Y-131646195D01*
G75*
G02*
X164383605Y-131646195I-53033J53033D01*
G01*
X163446689Y-130709279D01*
G75*
G02*
X163446689Y-130603213I53033J53033D01*
G01*
X163552755Y-130497147D01*
G75*
G02*
X163658821Y-130497147I53033J-53033D01*
G01*
X164595737Y-131434063D01*
G75*
G02*
X164595737Y-131540129I-53033J-53033D01*
G01*
G37*
G36*
G01*
X164949291Y-131186575D02*
X164843225Y-131292641D01*
G75*
G02*
X164737159Y-131292641I-53033J53033D01*
G01*
X163800243Y-130355725D01*
G75*
G02*
X163800243Y-130249659I53033J53033D01*
G01*
X163906309Y-130143593D01*
G75*
G02*
X164012375Y-130143593I53033J-53033D01*
G01*
X164949291Y-131080509D01*
G75*
G02*
X164949291Y-131186575I-53033J-53033D01*
G01*
G37*
G36*
G01*
X165302844Y-130833022D02*
X165196778Y-130939088D01*
G75*
G02*
X165090712Y-130939088I-53033J53033D01*
G01*
X164153796Y-130002172D01*
G75*
G02*
X164153796Y-129896106I53033J53033D01*
G01*
X164259862Y-129790040D01*
G75*
G02*
X164365928Y-129790040I53033J-53033D01*
G01*
X165302844Y-130726956D01*
G75*
G02*
X165302844Y-130833022I-53033J-53033D01*
G01*
G37*
G36*
G01*
X165656398Y-130479468D02*
X165550332Y-130585534D01*
G75*
G02*
X165444266Y-130585534I-53033J53033D01*
G01*
X164507350Y-129648618D01*
G75*
G02*
X164507350Y-129542552I53033J53033D01*
G01*
X164613416Y-129436486D01*
G75*
G02*
X164719482Y-129436486I53033J-53033D01*
G01*
X165656398Y-130373402D01*
G75*
G02*
X165656398Y-130479468I-53033J-53033D01*
G01*
G37*
G36*
G01*
X166009951Y-130125915D02*
X165903885Y-130231981D01*
G75*
G02*
X165797819Y-130231981I-53033J53033D01*
G01*
X164860903Y-129295065D01*
G75*
G02*
X164860903Y-129188999I53033J53033D01*
G01*
X164966969Y-129082933D01*
G75*
G02*
X165073035Y-129082933I53033J-53033D01*
G01*
X166009951Y-130019849D01*
G75*
G02*
X166009951Y-130125915I-53033J-53033D01*
G01*
G37*
G36*
G01*
X166363504Y-129772362D02*
X166257438Y-129878428D01*
G75*
G02*
X166151372Y-129878428I-53033J53033D01*
G01*
X165214456Y-128941512D01*
G75*
G02*
X165214456Y-128835446I53033J53033D01*
G01*
X165320522Y-128729380D01*
G75*
G02*
X165426588Y-128729380I53033J-53033D01*
G01*
X166363504Y-129666296D01*
G75*
G02*
X166363504Y-129772362I-53033J-53033D01*
G01*
G37*
G36*
G01*
X166717058Y-129418808D02*
X166610992Y-129524874D01*
G75*
G02*
X166504926Y-129524874I-53033J53033D01*
G01*
X165568010Y-128587958D01*
G75*
G02*
X165568010Y-128481892I53033J53033D01*
G01*
X165674076Y-128375826D01*
G75*
G02*
X165780142Y-128375826I53033J-53033D01*
G01*
X166717058Y-129312742D01*
G75*
G02*
X166717058Y-129418808I-53033J-53033D01*
G01*
G37*
G36*
G01*
X167070611Y-129065255D02*
X166964545Y-129171321D01*
G75*
G02*
X166858479Y-129171321I-53033J53033D01*
G01*
X165921563Y-128234405D01*
G75*
G02*
X165921563Y-128128339I53033J53033D01*
G01*
X166027629Y-128022273D01*
G75*
G02*
X166133695Y-128022273I53033J-53033D01*
G01*
X167070611Y-128959189D01*
G75*
G02*
X167070611Y-129065255I-53033J-53033D01*
G01*
G37*
G36*
G01*
X167424164Y-128711702D02*
X167318098Y-128817768D01*
G75*
G02*
X167212032Y-128817768I-53033J53033D01*
G01*
X166275116Y-127880852D01*
G75*
G02*
X166275116Y-127774786I53033J53033D01*
G01*
X166381182Y-127668720D01*
G75*
G02*
X166487248Y-127668720I53033J-53033D01*
G01*
X167424164Y-128605636D01*
G75*
G02*
X167424164Y-128711702I-53033J-53033D01*
G01*
G37*
G36*
G01*
X167777718Y-128358148D02*
X167671652Y-128464214D01*
G75*
G02*
X167565586Y-128464214I-53033J53033D01*
G01*
X166628670Y-127527298D01*
G75*
G02*
X166628670Y-127421232I53033J53033D01*
G01*
X166734736Y-127315166D01*
G75*
G02*
X166840802Y-127315166I53033J-53033D01*
G01*
X167777718Y-128252082D01*
G75*
G02*
X167777718Y-128358148I-53033J-53033D01*
G01*
G37*
G36*
G01*
X168131271Y-128004595D02*
X168025205Y-128110661D01*
G75*
G02*
X167919139Y-128110661I-53033J53033D01*
G01*
X166982223Y-127173745D01*
G75*
G02*
X166982223Y-127067679I53033J53033D01*
G01*
X167088289Y-126961613D01*
G75*
G02*
X167194355Y-126961613I53033J-53033D01*
G01*
X168131271Y-127898529D01*
G75*
G02*
X168131271Y-128004595I-53033J-53033D01*
G01*
G37*
G36*
G01*
X168484825Y-127651041D02*
X168378759Y-127757107D01*
G75*
G02*
X168272693Y-127757107I-53033J53033D01*
G01*
X167335777Y-126820191D01*
G75*
G02*
X167335777Y-126714125I53033J53033D01*
G01*
X167441843Y-126608059D01*
G75*
G02*
X167547909Y-126608059I53033J-53033D01*
G01*
X168484825Y-127544975D01*
G75*
G02*
X168484825Y-127651041I-53033J-53033D01*
G01*
G37*
%TD*%
D12*
%TO.C,SW46*%
X295361477Y-135419065D03*
X289011477Y-137959065D03*
D13*
X287741477Y-140499065D03*
X297901477Y-140499065D03*
D14*
X292821477Y-140499065D03*
%TD*%
D12*
%TO.C,SW45*%
X271548977Y-135419062D03*
X265198977Y-137959062D03*
D13*
X263928977Y-140499062D03*
X274088977Y-140499062D03*
D14*
X269008977Y-140499062D03*
%TD*%
D12*
%TO.C,SW44*%
X227227243Y-137888499D03*
X221292540Y-141287529D03*
D13*
X220388399Y-143979559D03*
X230449523Y-142565561D03*
D14*
X225418961Y-143272560D03*
%TD*%
D12*
%TO.C,SW43*%
X194214181Y-142528182D03*
X188279478Y-145927212D03*
D13*
X187375337Y-148619242D03*
X197436461Y-147205244D03*
D14*
X192405899Y-147912243D03*
%TD*%
D12*
%TO.C,SW42*%
X138829511Y-143582795D03*
X132187809Y-145214327D03*
D13*
X130576669Y-147552858D03*
X140637793Y-148966856D03*
D14*
X135607231Y-148259857D03*
%TD*%
D12*
%TO.C,SW41*%
X108174525Y-139274518D03*
X101532823Y-140906050D03*
D13*
X99921683Y-143244581D03*
X109982807Y-144658579D03*
D14*
X104952245Y-143951580D03*
%TD*%
D12*
%TO.C,SW40*%
X68573477Y-135267253D03*
X62223477Y-137807253D03*
D13*
X60953477Y-140347253D03*
X71113477Y-140347253D03*
D14*
X66033477Y-140347253D03*
%TD*%
D12*
%TO.C,SW39*%
X44760978Y-135267254D03*
X38410978Y-137807254D03*
D13*
X37140978Y-140347254D03*
X47300978Y-140347254D03*
D14*
X42220978Y-140347254D03*
%TD*%
D12*
%TO.C,SW38*%
X297458978Y-116179512D03*
X291108978Y-118719512D03*
D13*
X289838978Y-121259512D03*
X299998978Y-121259512D03*
D14*
X294918978Y-121259512D03*
%TD*%
D12*
%TO.C,SW37*%
X276027727Y-116179514D03*
X269677727Y-118719514D03*
D13*
X268407727Y-121259514D03*
X278567727Y-121259514D03*
D14*
X273487727Y-121259514D03*
%TD*%
D12*
%TO.C,SW36*%
X256977727Y-116179513D03*
X250627727Y-118719513D03*
D13*
X249357727Y-121259513D03*
X259517727Y-121259513D03*
D14*
X254437727Y-121259513D03*
%TD*%
D12*
%TO.C,SW35*%
X236366374Y-117366862D03*
X230431671Y-120765892D03*
D13*
X229527530Y-123457922D03*
X239588654Y-122043924D03*
D14*
X234558092Y-122750923D03*
%TD*%
D12*
%TO.C,SW34*%
X217501768Y-120018110D03*
X211567065Y-123417140D03*
D13*
X210662924Y-126109170D03*
X220724048Y-124695172D03*
D14*
X215693486Y-125402171D03*
%TD*%
D12*
%TO.C,SW33*%
X198637161Y-122669358D03*
X192702458Y-126068388D03*
D13*
X191798317Y-128760418D03*
X201859441Y-127346420D03*
D14*
X196828879Y-128053419D03*
%TD*%
D12*
%TO.C,SW32*%
X179772554Y-125320605D03*
X173837851Y-128719635D03*
D13*
X172933710Y-131411665D03*
X182994834Y-129997667D03*
D14*
X177964272Y-130704666D03*
%TD*%
D12*
%TO.C,SW31*%
X150913062Y-126043812D03*
X144271360Y-127675344D03*
D13*
X142660220Y-130013875D03*
X152721344Y-131427873D03*
D14*
X147690782Y-130720874D03*
%TD*%
D12*
%TO.C,SW30*%
X132048455Y-123392566D03*
X125406753Y-125024098D03*
D13*
X123795613Y-127362629D03*
X133856737Y-128776627D03*
D14*
X128826175Y-128069628D03*
%TD*%
D12*
%TO.C,SW29*%
X113183848Y-120741317D03*
X106542146Y-122372849D03*
D13*
X104931006Y-124711380D03*
X114992130Y-126125378D03*
D14*
X109961568Y-125418379D03*
%TD*%
D12*
%TO.C,SW28*%
X94319241Y-118090068D03*
X87677539Y-119721600D03*
D13*
X86066399Y-122060131D03*
X96127523Y-123474129D03*
D14*
X91096961Y-122767130D03*
%TD*%
D12*
%TO.C,SW27*%
X73621729Y-116027703D03*
X67271729Y-118567703D03*
D13*
X66001729Y-121107703D03*
X76161729Y-121107703D03*
D14*
X71081729Y-121107703D03*
%TD*%
D12*
%TO.C,SW26*%
X47427978Y-116027702D03*
X41077978Y-118567702D03*
D13*
X39807978Y-121107702D03*
X49967978Y-121107702D03*
D14*
X44887978Y-121107702D03*
%TD*%
D12*
%TO.C,SW25*%
X290028976Y-96938715D03*
X283678976Y-99478715D03*
D13*
X282408976Y-102018715D03*
X292568976Y-102018715D03*
D14*
X287488976Y-102018715D03*
%TD*%
D12*
%TO.C,SW24*%
X263835226Y-96938714D03*
X257485226Y-99478714D03*
D13*
X256215226Y-102018714D03*
X266375226Y-102018714D03*
D14*
X261295226Y-102018714D03*
%TD*%
D12*
%TO.C,SW23*%
X243147430Y-97176632D03*
X237212727Y-100575662D03*
D13*
X236308586Y-103267692D03*
X246369710Y-101853694D03*
D14*
X241339148Y-102560693D03*
%TD*%
D12*
%TO.C,SW22*%
X224282824Y-99827880D03*
X218348121Y-103226910D03*
D13*
X217443980Y-105918940D03*
X227505104Y-104504942D03*
D14*
X222474542Y-105211941D03*
%TD*%
D12*
%TO.C,SW21*%
X205418217Y-102479128D03*
X199483514Y-105878158D03*
D13*
X198579373Y-108570188D03*
X208640497Y-107156190D03*
D14*
X203609935Y-107863189D03*
%TD*%
D12*
%TO.C,SW20*%
X186553610Y-105130374D03*
X180618907Y-108529404D03*
D13*
X179714766Y-111221434D03*
X189775890Y-109807436D03*
D14*
X184745328Y-110514435D03*
%TD*%
D12*
%TO.C,SW19*%
X144132006Y-105853583D03*
X137490304Y-107485115D03*
D13*
X135879164Y-109823646D03*
X145940288Y-111237644D03*
D14*
X140909726Y-110530645D03*
%TD*%
D12*
%TO.C,SW18*%
X125267399Y-103202334D03*
X118625697Y-104833866D03*
D13*
X117014557Y-107172397D03*
X127075681Y-108586395D03*
D14*
X122045119Y-107879396D03*
%TD*%
D12*
%TO.C,SW17*%
X106402793Y-100551086D03*
X99761091Y-102182618D03*
D13*
X98149951Y-104521149D03*
X108211075Y-105935147D03*
D14*
X103180513Y-105228148D03*
%TD*%
D12*
%TO.C,SW16*%
X87538185Y-97899839D03*
X80896483Y-99531371D03*
D13*
X79285343Y-101869902D03*
X89346467Y-103283900D03*
D14*
X84315905Y-102576901D03*
%TD*%
D12*
%TO.C,SW15*%
X67049228Y-96786904D03*
X60699228Y-99326904D03*
D13*
X59429228Y-101866904D03*
X69589228Y-101866904D03*
D14*
X64509228Y-101866904D03*
%TD*%
D12*
%TO.C,SW14*%
X45617979Y-96786905D03*
X39267979Y-99326905D03*
D13*
X37997979Y-101866905D03*
X48157979Y-101866905D03*
D14*
X43077979Y-101866905D03*
%TD*%
D12*
%TO.C,SW13*%
X294506977Y-77697814D03*
X288156977Y-80237814D03*
D13*
X286886977Y-82777814D03*
X297046977Y-82777814D03*
D14*
X291966977Y-82777814D03*
%TD*%
D12*
%TO.C,SW12*%
X275456977Y-77697814D03*
X269106977Y-80237814D03*
D13*
X267836977Y-82777814D03*
X277996977Y-82777814D03*
D14*
X272916977Y-82777814D03*
%TD*%
D12*
%TO.C,SW11*%
X256406977Y-77697815D03*
X250056977Y-80237815D03*
D13*
X248786977Y-82777815D03*
X258946977Y-82777815D03*
D14*
X253866977Y-82777815D03*
%TD*%
D12*
%TO.C,SW10*%
X235780031Y-78974837D03*
X229845328Y-82373867D03*
D13*
X228941187Y-85065897D03*
X239002311Y-83651899D03*
D14*
X233971749Y-84358898D03*
%TD*%
D12*
%TO.C,SW9*%
X216915424Y-81626085D03*
X210980721Y-85025115D03*
D13*
X210076580Y-87717145D03*
X220137704Y-86303147D03*
D14*
X215107142Y-87010146D03*
%TD*%
D12*
%TO.C,SW8*%
X198050817Y-84277332D03*
X192116114Y-87676362D03*
D13*
X191211973Y-90368392D03*
X201273097Y-88954394D03*
D14*
X196242535Y-89661393D03*
%TD*%
D12*
%TO.C,SW7*%
X179186211Y-86928580D03*
X173251508Y-90327610D03*
D13*
X172347367Y-93019640D03*
X182408491Y-91605642D03*
D14*
X177377929Y-92312641D03*
%TD*%
D12*
%TO.C,SW6*%
X142067102Y-86326163D03*
X135425400Y-87957695D03*
D13*
X133814260Y-90296226D03*
X143875384Y-91710224D03*
D14*
X138844822Y-91003225D03*
%TD*%
D12*
%TO.C,SW5*%
X123202495Y-83674914D03*
X116560793Y-85306446D03*
D13*
X114949653Y-87644977D03*
X125010777Y-89058975D03*
D14*
X119980215Y-88351976D03*
%TD*%
D12*
%TO.C,SW4*%
X104337888Y-81023668D03*
X97696186Y-82655200D03*
D13*
X96085046Y-84993731D03*
X106146170Y-86407729D03*
D14*
X101115608Y-85700730D03*
%TD*%
D12*
%TO.C,SW3*%
X85473282Y-78372420D03*
X78831580Y-80003952D03*
D13*
X77220440Y-82342483D03*
X87281564Y-83756481D03*
D14*
X82251002Y-83049482D03*
%TD*%
D12*
%TO.C,SW2*%
X64858978Y-77546704D03*
X58508978Y-80086704D03*
D13*
X57238978Y-82626704D03*
X67398978Y-82626704D03*
D14*
X62318978Y-82626704D03*
%TD*%
D12*
%TO.C,SW1*%
X45808978Y-77546705D03*
X39458978Y-80086705D03*
D13*
X38188978Y-82626705D03*
X48348978Y-82626705D03*
D14*
X43268978Y-82626705D03*
%TD*%
%TO.C,S2*%
X203047404Y-138080550D03*
D15*
X181587644Y-156486295D03*
D14*
X179466646Y-141394610D03*
D15*
X205168402Y-153172236D03*
%TD*%
D14*
%TO.C,S1*%
X124965726Y-138428164D03*
D15*
X122844728Y-153519850D03*
X146425486Y-156833909D03*
D14*
X148546484Y-141742224D03*
%TD*%
%TO.C,R4*%
G36*
G01*
X170553491Y-122803770D02*
X170942400Y-122414861D01*
G75*
G02*
X171225242Y-122414861I141421J-141421D01*
G01*
X171508085Y-122697704D01*
G75*
G02*
X171508085Y-122980546I-141421J-141421D01*
G01*
X171119176Y-123369455D01*
G75*
G02*
X170836334Y-123369455I-141421J141421D01*
G01*
X170553491Y-123086612D01*
G75*
G02*
X170553491Y-122803770I141421J141421D01*
G01*
G37*
G36*
G01*
X169386765Y-121637044D02*
X169775674Y-121248135D01*
G75*
G02*
X170058516Y-121248135I141421J-141421D01*
G01*
X170341359Y-121530978D01*
G75*
G02*
X170341359Y-121813820I-141421J-141421D01*
G01*
X169952450Y-122202729D01*
G75*
G02*
X169669608Y-122202729I-141421J141421D01*
G01*
X169386765Y-121919886D01*
G75*
G02*
X169386765Y-121637044I141421J141421D01*
G01*
G37*
%TD*%
%TO.C,R3*%
G36*
G01*
X157552450Y-117789861D02*
X157941359Y-118178770D01*
G75*
G02*
X157941359Y-118461612I-141421J-141421D01*
G01*
X157658516Y-118744455D01*
G75*
G02*
X157375674Y-118744455I-141421J141421D01*
G01*
X156986765Y-118355546D01*
G75*
G02*
X156986765Y-118072704I141421J141421D01*
G01*
X157269608Y-117789861D01*
G75*
G02*
X157552450Y-117789861I141421J-141421D01*
G01*
G37*
G36*
G01*
X158719176Y-116623135D02*
X159108085Y-117012044D01*
G75*
G02*
X159108085Y-117294886I-141421J-141421D01*
G01*
X158825242Y-117577729D01*
G75*
G02*
X158542400Y-117577729I-141421J141421D01*
G01*
X158153491Y-117188820D01*
G75*
G02*
X158153491Y-116905978I141421J141421D01*
G01*
X158436334Y-116623135D01*
G75*
G02*
X158719176Y-116623135I141421J-141421D01*
G01*
G37*
%TD*%
D16*
%TO.C,J2*%
X160367425Y-115033795D03*
X162907425Y-115033795D03*
D17*
X165447425Y-115033795D03*
%TD*%
%TO.C,J1*%
G36*
G01*
X160822425Y-108108794D02*
X160822425Y-109408796D01*
G75*
G02*
X160572426Y-109658795I-249999J0D01*
G01*
X159872424Y-109658795D01*
G75*
G02*
X159622425Y-109408796I0J249999D01*
G01*
X159622425Y-108108794D01*
G75*
G02*
X159872424Y-107858795I249999J0D01*
G01*
X160572426Y-107858795D01*
G75*
G02*
X160822425Y-108108794I0J-249999D01*
G01*
G37*
G36*
G01*
X166422425Y-108108794D02*
X166422425Y-109408796D01*
G75*
G02*
X166172426Y-109658795I-249999J0D01*
G01*
X165472424Y-109658795D01*
G75*
G02*
X165222425Y-109408796I0J249999D01*
G01*
X165222425Y-108108794D01*
G75*
G02*
X165472424Y-107858795I249999J0D01*
G01*
X166172426Y-107858795D01*
G75*
G02*
X166422425Y-108108794I0J-249999D01*
G01*
G37*
G36*
G01*
X161822425Y-104258795D02*
X161822425Y-105508795D01*
G75*
G02*
X161672425Y-105658795I-150000J0D01*
G01*
X161372425Y-105658795D01*
G75*
G02*
X161222425Y-105508795I0J150000D01*
G01*
X161222425Y-104258795D01*
G75*
G02*
X161372425Y-104108795I150000J0D01*
G01*
X161672425Y-104108795D01*
G75*
G02*
X161822425Y-104258795I0J-150000D01*
G01*
G37*
G36*
G01*
X162822425Y-104258795D02*
X162822425Y-105508795D01*
G75*
G02*
X162672425Y-105658795I-150000J0D01*
G01*
X162372425Y-105658795D01*
G75*
G02*
X162222425Y-105508795I0J150000D01*
G01*
X162222425Y-104258795D01*
G75*
G02*
X162372425Y-104108795I150000J0D01*
G01*
X162672425Y-104108795D01*
G75*
G02*
X162822425Y-104258795I0J-150000D01*
G01*
G37*
G36*
G01*
X163822425Y-104258795D02*
X163822425Y-105508795D01*
G75*
G02*
X163672425Y-105658795I-150000J0D01*
G01*
X163372425Y-105658795D01*
G75*
G02*
X163222425Y-105508795I0J150000D01*
G01*
X163222425Y-104258795D01*
G75*
G02*
X163372425Y-104108795I150000J0D01*
G01*
X163672425Y-104108795D01*
G75*
G02*
X163822425Y-104258795I0J-150000D01*
G01*
G37*
G36*
G01*
X164822425Y-104258795D02*
X164822425Y-105508795D01*
G75*
G02*
X164672425Y-105658795I-150000J0D01*
G01*
X164372425Y-105658795D01*
G75*
G02*
X164222425Y-105508795I0J150000D01*
G01*
X164222425Y-104258795D01*
G75*
G02*
X164372425Y-104108795I150000J0D01*
G01*
X164672425Y-104108795D01*
G75*
G02*
X164822425Y-104258795I0J-150000D01*
G01*
G37*
%TD*%
%TO.C,F1*%
G36*
G01*
X167447425Y-108158795D02*
X168697425Y-108158795D01*
G75*
G02*
X168947425Y-108408795I0J-250000D01*
G01*
X168947425Y-109158795D01*
G75*
G02*
X168697425Y-109408795I-250000J0D01*
G01*
X167447425Y-109408795D01*
G75*
G02*
X167197425Y-109158795I0J250000D01*
G01*
X167197425Y-108408795D01*
G75*
G02*
X167447425Y-108158795I250000J0D01*
G01*
G37*
G36*
G01*
X167447425Y-105358795D02*
X168697425Y-105358795D01*
G75*
G02*
X168947425Y-105608795I0J-250000D01*
G01*
X168947425Y-106358795D01*
G75*
G02*
X168697425Y-106608795I-250000J0D01*
G01*
X167447425Y-106608795D01*
G75*
G02*
X167197425Y-106358795I0J250000D01*
G01*
X167197425Y-105608795D01*
G75*
G02*
X167447425Y-105358795I250000J0D01*
G01*
G37*
%TD*%
D11*
%TO.C,D23*%
X280915227Y-143880312D03*
X281865227Y-141880312D03*
X279965227Y-141880312D03*
%TD*%
D10*
%TO.C,D22*%
G36*
X213640425Y-147887983D02*
G01*
X214432639Y-147776644D01*
X214557895Y-148667885D01*
X213765681Y-148779224D01*
X213640425Y-147887983D01*
G37*
G36*
X214302834Y-145775232D02*
G01*
X215095048Y-145663893D01*
X215220304Y-146555134D01*
X214428090Y-146666473D01*
X214302834Y-145775232D01*
G37*
G36*
X212421324Y-146039661D02*
G01*
X213213538Y-145928322D01*
X213338794Y-146819563D01*
X212546580Y-146930902D01*
X212421324Y-146039661D01*
G37*
%TD*%
%TO.C,D21*%
G36*
X115938566Y-148455663D02*
G01*
X116730780Y-148567002D01*
X116605524Y-149458243D01*
X115813310Y-149346904D01*
X115938566Y-148455663D01*
G37*
G36*
X117157667Y-146607341D02*
G01*
X117949881Y-146718680D01*
X117824625Y-147609921D01*
X117032411Y-147498582D01*
X117157667Y-146607341D01*
G37*
G36*
X115276157Y-146342912D02*
G01*
X116068371Y-146454251D01*
X115943115Y-147345492D01*
X115150901Y-147234153D01*
X115276157Y-146342912D01*
G37*
%TD*%
D11*
%TO.C,D20*%
X54127228Y-143728505D03*
X55077228Y-141728505D03*
X53177228Y-141728505D03*
%TD*%
%TO.C,D19*%
X263962727Y-124640763D03*
X264912727Y-122640763D03*
X263012727Y-122640763D03*
%TD*%
D10*
%TO.C,D18*%
G36*
X225137633Y-127034940D02*
G01*
X225929847Y-126923601D01*
X226055103Y-127814842D01*
X225262889Y-127926181D01*
X225137633Y-127034940D01*
G37*
G36*
X225800042Y-124922189D02*
G01*
X226592256Y-124810850D01*
X226717512Y-125702091D01*
X225925298Y-125813430D01*
X225800042Y-124922189D01*
G37*
G36*
X223918532Y-125186618D02*
G01*
X224710746Y-125075279D01*
X224836002Y-125966520D01*
X224043788Y-126077859D01*
X223918532Y-125186618D01*
G37*
%TD*%
%TO.C,D17*%
G36*
X187408419Y-132337435D02*
G01*
X188200633Y-132226096D01*
X188325889Y-133117337D01*
X187533675Y-133228676D01*
X187408419Y-132337435D01*
G37*
G36*
X188070828Y-130224684D02*
G01*
X188863042Y-130113345D01*
X188988298Y-131004586D01*
X188196084Y-131115925D01*
X188070828Y-130224684D01*
G37*
G36*
X186189318Y-130489113D02*
G01*
X186981532Y-130377774D01*
X187106788Y-131269015D01*
X186314574Y-131380354D01*
X186189318Y-130489113D01*
G37*
%TD*%
%TO.C,D16*%
G36*
X137454419Y-132242304D02*
G01*
X138246633Y-132353643D01*
X138121377Y-133244884D01*
X137329163Y-133133545D01*
X137454419Y-132242304D01*
G37*
G36*
X138673520Y-130393982D02*
G01*
X139465734Y-130505321D01*
X139340478Y-131396562D01*
X138548264Y-131285223D01*
X138673520Y-130393982D01*
G37*
G36*
X136792010Y-130129553D02*
G01*
X137584224Y-130240892D01*
X137458968Y-131132133D01*
X136666754Y-131020794D01*
X136792010Y-130129553D01*
G37*
%TD*%
%TO.C,D15*%
G36*
X99725207Y-126939809D02*
G01*
X100517421Y-127051148D01*
X100392165Y-127942389D01*
X99599951Y-127831050D01*
X99725207Y-126939809D01*
G37*
G36*
X100944308Y-125091487D02*
G01*
X101736522Y-125202826D01*
X101611266Y-126094067D01*
X100819052Y-125982728D01*
X100944308Y-125091487D01*
G37*
G36*
X99062798Y-124827058D02*
G01*
X99855012Y-124938397D01*
X99729756Y-125829638D01*
X98937542Y-125718299D01*
X99062798Y-124827058D01*
G37*
%TD*%
D11*
%TO.C,D14*%
X61556728Y-124488952D03*
X62506728Y-122488952D03*
X60606728Y-122488952D03*
%TD*%
%TO.C,D13*%
X270820226Y-105399964D03*
X271770226Y-103399964D03*
X269870226Y-103399964D03*
%TD*%
D10*
%TO.C,D12*%
G36*
X231918689Y-106844710D02*
G01*
X232710903Y-106733371D01*
X232836159Y-107624612D01*
X232043945Y-107735951D01*
X231918689Y-106844710D01*
G37*
G36*
X232581098Y-104731959D02*
G01*
X233373312Y-104620620D01*
X233498568Y-105511861D01*
X232706354Y-105623200D01*
X232581098Y-104731959D01*
G37*
G36*
X230699588Y-104996388D02*
G01*
X231491802Y-104885049D01*
X231617058Y-105776290D01*
X230824844Y-105887629D01*
X230699588Y-104996388D01*
G37*
%TD*%
%TO.C,D11*%
G36*
X194189475Y-112147205D02*
G01*
X194981689Y-112035866D01*
X195106945Y-112927107D01*
X194314731Y-113038446D01*
X194189475Y-112147205D01*
G37*
G36*
X194851884Y-110034454D02*
G01*
X195644098Y-109923115D01*
X195769354Y-110814356D01*
X194977140Y-110925695D01*
X194851884Y-110034454D01*
G37*
G36*
X192970374Y-110298883D02*
G01*
X193762588Y-110187544D01*
X193887844Y-111078785D01*
X193095630Y-111190124D01*
X192970374Y-110298883D01*
G37*
%TD*%
%TO.C,D10*%
G36*
X130673365Y-112052074D02*
G01*
X131465579Y-112163413D01*
X131340323Y-113054654D01*
X130548109Y-112943315D01*
X130673365Y-112052074D01*
G37*
G36*
X131892466Y-110203752D02*
G01*
X132684680Y-110315091D01*
X132559424Y-111206332D01*
X131767210Y-111094993D01*
X131892466Y-110203752D01*
G37*
G36*
X130010956Y-109939323D02*
G01*
X130803170Y-110050662D01*
X130677914Y-110941903D01*
X129885700Y-110830564D01*
X130010956Y-109939323D01*
G37*
%TD*%
%TO.C,D9*%
G36*
X92944151Y-106749578D02*
G01*
X93736365Y-106860917D01*
X93611109Y-107752158D01*
X92818895Y-107640819D01*
X92944151Y-106749578D01*
G37*
G36*
X94163252Y-104901256D02*
G01*
X94955466Y-105012595D01*
X94830210Y-105903836D01*
X94037996Y-105792497D01*
X94163252Y-104901256D01*
G37*
G36*
X92281742Y-104636827D02*
G01*
X93073956Y-104748166D01*
X92948700Y-105639407D01*
X92156486Y-105528068D01*
X92281742Y-104636827D01*
G37*
%TD*%
D11*
%TO.C,D8*%
X54984229Y-105248155D03*
X55934229Y-103248155D03*
X54034229Y-103248155D03*
%TD*%
%TO.C,D7*%
X301491977Y-86159065D03*
X302441977Y-84159065D03*
X300541977Y-84159065D03*
%TD*%
%TO.C,D6*%
X263391977Y-86159065D03*
X264341977Y-84159065D03*
X262441977Y-84159065D03*
%TD*%
D10*
%TO.C,D5*%
G36*
X224551290Y-88642915D02*
G01*
X225343504Y-88531576D01*
X225468760Y-89422817D01*
X224676546Y-89534156D01*
X224551290Y-88642915D01*
G37*
G36*
X225213699Y-86530164D02*
G01*
X226005913Y-86418825D01*
X226131169Y-87310066D01*
X225338955Y-87421405D01*
X225213699Y-86530164D01*
G37*
G36*
X223332189Y-86794593D02*
G01*
X224124403Y-86683254D01*
X224249659Y-87574495D01*
X223457445Y-87685834D01*
X223332189Y-86794593D01*
G37*
%TD*%
%TO.C,D4*%
G36*
X186822076Y-93945411D02*
G01*
X187614290Y-93834072D01*
X187739546Y-94725313D01*
X186947332Y-94836652D01*
X186822076Y-93945411D01*
G37*
G36*
X187484485Y-91832660D02*
G01*
X188276699Y-91721321D01*
X188401955Y-92612562D01*
X187609741Y-92723901D01*
X187484485Y-91832660D01*
G37*
G36*
X185602975Y-92097089D02*
G01*
X186395189Y-91985750D01*
X186520445Y-92876991D01*
X185728231Y-92988330D01*
X185602975Y-92097089D01*
G37*
%TD*%
%TO.C,D3*%
G36*
X128608461Y-92524655D02*
G01*
X129400675Y-92635994D01*
X129275419Y-93527235D01*
X128483205Y-93415896D01*
X128608461Y-92524655D01*
G37*
G36*
X129827562Y-90676333D02*
G01*
X130619776Y-90787672D01*
X130494520Y-91678913D01*
X129702306Y-91567574D01*
X129827562Y-90676333D01*
G37*
G36*
X127946052Y-90411904D02*
G01*
X128738266Y-90523243D01*
X128613010Y-91414484D01*
X127820796Y-91303145D01*
X127946052Y-90411904D01*
G37*
%TD*%
%TO.C,D2*%
G36*
X90879247Y-87222160D02*
G01*
X91671461Y-87333499D01*
X91546205Y-88224740D01*
X90753991Y-88113401D01*
X90879247Y-87222160D01*
G37*
G36*
X92098348Y-85373838D02*
G01*
X92890562Y-85485177D01*
X92765306Y-86376418D01*
X91973092Y-86265079D01*
X92098348Y-85373838D01*
G37*
G36*
X90216838Y-85109409D02*
G01*
X91009052Y-85220748D01*
X90883796Y-86111989D01*
X90091582Y-86000650D01*
X90216838Y-85109409D01*
G37*
%TD*%
D11*
%TO.C,D1*%
X52793978Y-86007955D03*
X53743978Y-84007955D03*
X51843978Y-84007955D03*
%TD*%
%TO.C,C9*%
G36*
G01*
X169622425Y-112708795D02*
X169122425Y-112708795D01*
G75*
G02*
X168897425Y-112483795I0J225000D01*
G01*
X168897425Y-112033795D01*
G75*
G02*
X169122425Y-111808795I225000J0D01*
G01*
X169622425Y-111808795D01*
G75*
G02*
X169847425Y-112033795I0J-225000D01*
G01*
X169847425Y-112483795D01*
G75*
G02*
X169622425Y-112708795I-225000J0D01*
G01*
G37*
G36*
G01*
X169622425Y-114258795D02*
X169122425Y-114258795D01*
G75*
G02*
X168897425Y-114033795I0J225000D01*
G01*
X168897425Y-113583795D01*
G75*
G02*
X169122425Y-113358795I225000J0D01*
G01*
X169622425Y-113358795D01*
G75*
G02*
X169847425Y-113583795I0J-225000D01*
G01*
X169847425Y-114033795D01*
G75*
G02*
X169622425Y-114258795I-225000J0D01*
G01*
G37*
%TD*%
%TO.C,C8*%
G36*
G01*
X174122425Y-113358795D02*
X174622425Y-113358795D01*
G75*
G02*
X174847425Y-113583795I0J-225000D01*
G01*
X174847425Y-114033795D01*
G75*
G02*
X174622425Y-114258795I-225000J0D01*
G01*
X174122425Y-114258795D01*
G75*
G02*
X173897425Y-114033795I0J225000D01*
G01*
X173897425Y-113583795D01*
G75*
G02*
X174122425Y-113358795I225000J0D01*
G01*
G37*
G36*
G01*
X174122425Y-111808795D02*
X174622425Y-111808795D01*
G75*
G02*
X174847425Y-112033795I0J-225000D01*
G01*
X174847425Y-112483795D01*
G75*
G02*
X174622425Y-112708795I-225000J0D01*
G01*
X174122425Y-112708795D01*
G75*
G02*
X173897425Y-112483795I0J225000D01*
G01*
X173897425Y-112033795D01*
G75*
G02*
X174122425Y-111808795I225000J0D01*
G01*
G37*
%TD*%
%TO.C,C7*%
G36*
G01*
X158715838Y-118811828D02*
X159069392Y-119165382D01*
G75*
G02*
X159069392Y-119483580I-159099J-159099D01*
G01*
X158751194Y-119801778D01*
G75*
G02*
X158432996Y-119801778I-159099J159099D01*
G01*
X158079442Y-119448224D01*
G75*
G02*
X158079442Y-119130026I159099J159099D01*
G01*
X158397640Y-118811828D01*
G75*
G02*
X158715838Y-118811828I159099J-159099D01*
G01*
G37*
G36*
G01*
X159811854Y-117715812D02*
X160165408Y-118069366D01*
G75*
G02*
X160165408Y-118387564I-159099J-159099D01*
G01*
X159847210Y-118705762D01*
G75*
G02*
X159529012Y-118705762I-159099J159099D01*
G01*
X159175458Y-118352208D01*
G75*
G02*
X159175458Y-118034010I159099J159099D01*
G01*
X159493656Y-117715812D01*
G75*
G02*
X159811854Y-117715812I159099J-159099D01*
G01*
G37*
%TD*%
%TO.C,C6*%
G36*
G01*
X159790838Y-119886828D02*
X160144392Y-120240382D01*
G75*
G02*
X160144392Y-120558580I-159099J-159099D01*
G01*
X159826194Y-120876778D01*
G75*
G02*
X159507996Y-120876778I-159099J159099D01*
G01*
X159154442Y-120523224D01*
G75*
G02*
X159154442Y-120205026I159099J159099D01*
G01*
X159472640Y-119886828D01*
G75*
G02*
X159790838Y-119886828I159099J-159099D01*
G01*
G37*
G36*
G01*
X160886854Y-118790812D02*
X161240408Y-119144366D01*
G75*
G02*
X161240408Y-119462564I-159099J-159099D01*
G01*
X160922210Y-119780762D01*
G75*
G02*
X160604012Y-119780762I-159099J159099D01*
G01*
X160250458Y-119427208D01*
G75*
G02*
X160250458Y-119109010I159099J159099D01*
G01*
X160568656Y-118790812D01*
G75*
G02*
X160886854Y-118790812I159099J-159099D01*
G01*
G37*
%TD*%
%TO.C,C5*%
G36*
G01*
X156725458Y-129415382D02*
X157079012Y-129061828D01*
G75*
G02*
X157397210Y-129061828I159099J-159099D01*
G01*
X157715408Y-129380026D01*
G75*
G02*
X157715408Y-129698224I-159099J-159099D01*
G01*
X157361854Y-130051778D01*
G75*
G02*
X157043656Y-130051778I-159099J159099D01*
G01*
X156725458Y-129733580D01*
G75*
G02*
X156725458Y-129415382I159099J159099D01*
G01*
G37*
G36*
G01*
X155629442Y-128319366D02*
X155982996Y-127965812D01*
G75*
G02*
X156301194Y-127965812I159099J-159099D01*
G01*
X156619392Y-128284010D01*
G75*
G02*
X156619392Y-128602208I-159099J-159099D01*
G01*
X156265838Y-128955762D01*
G75*
G02*
X155947640Y-128955762I-159099J159099D01*
G01*
X155629442Y-128637564D01*
G75*
G02*
X155629442Y-128319366I159099J159099D01*
G01*
G37*
%TD*%
%TO.C,C4*%
G36*
G01*
X167100458Y-133640382D02*
X167454012Y-133286828D01*
G75*
G02*
X167772210Y-133286828I159099J-159099D01*
G01*
X168090408Y-133605026D01*
G75*
G02*
X168090408Y-133923224I-159099J-159099D01*
G01*
X167736854Y-134276778D01*
G75*
G02*
X167418656Y-134276778I-159099J159099D01*
G01*
X167100458Y-133958580D01*
G75*
G02*
X167100458Y-133640382I159099J159099D01*
G01*
G37*
G36*
G01*
X166004442Y-132544366D02*
X166357996Y-132190812D01*
G75*
G02*
X166676194Y-132190812I159099J-159099D01*
G01*
X166994392Y-132509010D01*
G75*
G02*
X166994392Y-132827208I-159099J-159099D01*
G01*
X166640838Y-133180762D01*
G75*
G02*
X166322640Y-133180762I-159099J159099D01*
G01*
X166004442Y-132862564D01*
G75*
G02*
X166004442Y-132544366I159099J159099D01*
G01*
G37*
%TD*%
%TO.C,C3*%
G36*
G01*
X169319392Y-122977208D02*
X168965838Y-123330762D01*
G75*
G02*
X168647640Y-123330762I-159099J159099D01*
G01*
X168329442Y-123012564D01*
G75*
G02*
X168329442Y-122694366I159099J159099D01*
G01*
X168682996Y-122340812D01*
G75*
G02*
X169001194Y-122340812I159099J-159099D01*
G01*
X169319392Y-122659010D01*
G75*
G02*
X169319392Y-122977208I-159099J-159099D01*
G01*
G37*
G36*
G01*
X170415408Y-124073224D02*
X170061854Y-124426778D01*
G75*
G02*
X169743656Y-124426778I-159099J159099D01*
G01*
X169425458Y-124108580D01*
G75*
G02*
X169425458Y-123790382I159099J159099D01*
G01*
X169779012Y-123436828D01*
G75*
G02*
X170097210Y-123436828I159099J-159099D01*
G01*
X170415408Y-123755026D01*
G75*
G02*
X170415408Y-124073224I-159099J-159099D01*
G01*
G37*
%TD*%
%TO.C,C1*%
G36*
G01*
X165919392Y-133902208D02*
X165565838Y-134255762D01*
G75*
G02*
X165247640Y-134255762I-159099J159099D01*
G01*
X164929442Y-133937564D01*
G75*
G02*
X164929442Y-133619366I159099J159099D01*
G01*
X165282996Y-133265812D01*
G75*
G02*
X165601194Y-133265812I159099J-159099D01*
G01*
X165919392Y-133584010D01*
G75*
G02*
X165919392Y-133902208I-159099J-159099D01*
G01*
G37*
G36*
G01*
X167015408Y-134998224D02*
X166661854Y-135351778D01*
G75*
G02*
X166343656Y-135351778I-159099J159099D01*
G01*
X166025458Y-135033580D01*
G75*
G02*
X166025458Y-134715382I159099J159099D01*
G01*
X166379012Y-134361828D01*
G75*
G02*
X166697210Y-134361828I159099J-159099D01*
G01*
X167015408Y-134680026D01*
G75*
G02*
X167015408Y-134998224I-159099J-159099D01*
G01*
G37*
%TD*%
M02*
