%TF.GenerationSoftware,KiCad,Pcbnew,(5.1.8)-1*%
%TF.CreationDate,2021-05-05T18:46:58+02:00*%
%TF.ProjectId,Annelise,416e6e65-6c69-4736-952e-6b696361645f,rev?*%
%TF.SameCoordinates,Original*%
%TF.FileFunction,Soldermask,Top*%
%TF.FilePolarity,Negative*%
%FSLAX46Y46*%
G04 Gerber Fmt 4.6, Leading zero omitted, Abs format (unit mm)*
G04 Created by KiCad (PCBNEW (5.1.8)-1) date 2021-05-05 18:46:58*
%MOMM*%
%LPD*%
G01*
G04 APERTURE LIST*
%ADD10C,1.750000*%
%ADD11C,3.987800*%
%ADD12C,3.048000*%
%ADD13O,1.700000X1.700000*%
%ADD14R,1.700000X1.700000*%
G04 APERTURE END LIST*
D10*
%TO.C,SW46*%
X287741477Y-140499065D03*
X297901477Y-140499065D03*
D11*
X292821477Y-140499065D03*
%TD*%
D10*
%TO.C,SW45*%
X263928977Y-140499062D03*
X274088977Y-140499062D03*
D11*
X269008977Y-140499062D03*
%TD*%
D10*
%TO.C,SW44*%
X220388399Y-143979559D03*
X230449523Y-142565561D03*
D11*
X225418961Y-143272560D03*
%TD*%
D10*
%TO.C,SW43*%
X187375337Y-148619242D03*
X197436461Y-147205244D03*
D11*
X192405899Y-147912243D03*
%TD*%
D10*
%TO.C,SW42*%
X130576669Y-147552858D03*
X140637793Y-148966856D03*
D11*
X135607231Y-148259857D03*
%TD*%
D10*
%TO.C,SW41*%
X99921683Y-143244581D03*
X109982807Y-144658579D03*
D11*
X104952245Y-143951580D03*
%TD*%
D10*
%TO.C,SW40*%
X60953477Y-140347253D03*
X71113477Y-140347253D03*
D11*
X66033477Y-140347253D03*
%TD*%
D10*
%TO.C,SW39*%
X37140978Y-140347254D03*
X47300978Y-140347254D03*
D11*
X42220978Y-140347254D03*
%TD*%
D10*
%TO.C,SW38*%
X289838978Y-121259512D03*
X299998978Y-121259512D03*
D11*
X294918978Y-121259512D03*
%TD*%
D10*
%TO.C,SW37*%
X268407727Y-121259514D03*
X278567727Y-121259514D03*
D11*
X273487727Y-121259514D03*
%TD*%
D10*
%TO.C,SW36*%
X249357727Y-121259513D03*
X259517727Y-121259513D03*
D11*
X254437727Y-121259513D03*
%TD*%
D10*
%TO.C,SW35*%
X229527530Y-123457922D03*
X239588654Y-122043924D03*
D11*
X234558092Y-122750923D03*
%TD*%
D10*
%TO.C,SW34*%
X210662924Y-126109170D03*
X220724048Y-124695172D03*
D11*
X215693486Y-125402171D03*
%TD*%
D10*
%TO.C,SW33*%
X191798317Y-128760418D03*
X201859441Y-127346420D03*
D11*
X196828879Y-128053419D03*
%TD*%
D10*
%TO.C,SW32*%
X172933710Y-131411665D03*
X182994834Y-129997667D03*
D11*
X177964272Y-130704666D03*
%TD*%
D10*
%TO.C,SW31*%
X142660220Y-130013875D03*
X152721344Y-131427873D03*
D11*
X147690782Y-130720874D03*
%TD*%
D10*
%TO.C,SW30*%
X123795613Y-127362629D03*
X133856737Y-128776627D03*
D11*
X128826175Y-128069628D03*
%TD*%
D10*
%TO.C,SW29*%
X104931006Y-124711380D03*
X114992130Y-126125378D03*
D11*
X109961568Y-125418379D03*
%TD*%
D10*
%TO.C,SW28*%
X86066399Y-122060131D03*
X96127523Y-123474129D03*
D11*
X91096961Y-122767130D03*
%TD*%
D10*
%TO.C,SW27*%
X66001729Y-121107703D03*
X76161729Y-121107703D03*
D11*
X71081729Y-121107703D03*
%TD*%
D10*
%TO.C,SW26*%
X39807978Y-121107702D03*
X49967978Y-121107702D03*
D11*
X44887978Y-121107702D03*
%TD*%
D10*
%TO.C,SW25*%
X282408976Y-102018715D03*
X292568976Y-102018715D03*
D11*
X287488976Y-102018715D03*
%TD*%
D10*
%TO.C,SW24*%
X256215226Y-102018714D03*
X266375226Y-102018714D03*
D11*
X261295226Y-102018714D03*
%TD*%
D10*
%TO.C,SW23*%
X236308586Y-103267692D03*
X246369710Y-101853694D03*
D11*
X241339148Y-102560693D03*
%TD*%
D10*
%TO.C,SW22*%
X217443980Y-105918940D03*
X227505104Y-104504942D03*
D11*
X222474542Y-105211941D03*
%TD*%
D10*
%TO.C,SW21*%
X198579373Y-108570188D03*
X208640497Y-107156190D03*
D11*
X203609935Y-107863189D03*
%TD*%
D10*
%TO.C,SW20*%
X179714766Y-111221434D03*
X189775890Y-109807436D03*
D11*
X184745328Y-110514435D03*
%TD*%
D10*
%TO.C,SW19*%
X135879164Y-109823646D03*
X145940288Y-111237644D03*
D11*
X140909726Y-110530645D03*
%TD*%
D10*
%TO.C,SW18*%
X117014557Y-107172397D03*
X127075681Y-108586395D03*
D11*
X122045119Y-107879396D03*
%TD*%
D10*
%TO.C,SW17*%
X98149951Y-104521149D03*
X108211075Y-105935147D03*
D11*
X103180513Y-105228148D03*
%TD*%
D10*
%TO.C,SW16*%
X79285343Y-101869902D03*
X89346467Y-103283900D03*
D11*
X84315905Y-102576901D03*
%TD*%
D10*
%TO.C,SW15*%
X59429228Y-101866904D03*
X69589228Y-101866904D03*
D11*
X64509228Y-101866904D03*
%TD*%
D10*
%TO.C,SW14*%
X37997979Y-101866905D03*
X48157979Y-101866905D03*
D11*
X43077979Y-101866905D03*
%TD*%
D10*
%TO.C,SW13*%
X286886977Y-82777814D03*
X297046977Y-82777814D03*
D11*
X291966977Y-82777814D03*
%TD*%
D10*
%TO.C,SW12*%
X267836977Y-82777814D03*
X277996977Y-82777814D03*
D11*
X272916977Y-82777814D03*
%TD*%
D10*
%TO.C,SW11*%
X248786977Y-82777815D03*
X258946977Y-82777815D03*
D11*
X253866977Y-82777815D03*
%TD*%
D10*
%TO.C,SW10*%
X228941187Y-85065897D03*
X239002311Y-83651899D03*
D11*
X233971749Y-84358898D03*
%TD*%
D10*
%TO.C,SW9*%
X210076580Y-87717145D03*
X220137704Y-86303147D03*
D11*
X215107142Y-87010146D03*
%TD*%
D10*
%TO.C,SW8*%
X191211973Y-90368392D03*
X201273097Y-88954394D03*
D11*
X196242535Y-89661393D03*
%TD*%
D10*
%TO.C,SW7*%
X172347367Y-93019640D03*
X182408491Y-91605642D03*
D11*
X177377929Y-92312641D03*
%TD*%
D10*
%TO.C,SW6*%
X133814260Y-90296226D03*
X143875384Y-91710224D03*
D11*
X138844822Y-91003225D03*
%TD*%
D10*
%TO.C,SW5*%
X114949653Y-87644977D03*
X125010777Y-89058975D03*
D11*
X119980215Y-88351976D03*
%TD*%
D10*
%TO.C,SW4*%
X96085046Y-84993731D03*
X106146170Y-86407729D03*
D11*
X101115608Y-85700730D03*
%TD*%
D10*
%TO.C,SW3*%
X77220440Y-82342483D03*
X87281564Y-83756481D03*
D11*
X82251002Y-83049482D03*
%TD*%
D10*
%TO.C,SW2*%
X57238978Y-82626704D03*
X67398978Y-82626704D03*
D11*
X62318978Y-82626704D03*
%TD*%
D10*
%TO.C,SW1*%
X38188978Y-82626705D03*
X48348978Y-82626705D03*
D11*
X43268978Y-82626705D03*
%TD*%
%TO.C,S2*%
X203047404Y-138080550D03*
D12*
X181587644Y-156486295D03*
D11*
X179466646Y-141394610D03*
D12*
X205168402Y-153172236D03*
%TD*%
D11*
%TO.C,S1*%
X124965726Y-138428164D03*
D12*
X122844728Y-153519850D03*
X146425486Y-156833909D03*
D11*
X148546484Y-141742224D03*
%TD*%
D13*
%TO.C,J2*%
X160367425Y-115033795D03*
X162907425Y-115033795D03*
D14*
X165447425Y-115033795D03*
%TD*%
M02*
